{
	"patcher" : 	{
		"fileversion" : 1,
		"rect" : [ 133.0, 97.0, 1177.0, 708.0 ],
		"bglocked" : 0,
		"defrect" : [ 133.0, 97.0, 1177.0, 708.0 ],
		"openrect" : [ 0.0, 0.0, 0.0, 0.0 ],
		"openinpresentation" : 0,
		"default_fontsize" : 12.0,
		"default_fontface" : 0,
		"default_fontname" : "Arial",
		"gridonopen" : 0,
		"gridsize" : [ 15.0, 15.0 ],
		"gridsnaponopen" : 0,
		"toolbarvisible" : 1,
		"boxanimatetime" : 200,
		"imprint" : 0,
		"boxes" : [ 			{
				"box" : 				{
					"maxclass" : "comment",
					"text" : "start audio interface",
					"id" : "obj-1",
					"fontname" : "Arial",
					"numinlets" : 1,
					"numoutlets" : 0,
					"patching_rect" : [ 485.0, 42.0, 100.0, 17.0 ],
					"fontsize" : 9.0
				}

			}
, 			{
				"box" : 				{
					"maxclass" : "newobj",
					"text" : "patcher dacBang",
					"id" : "obj-2",
					"fontname" : "Arial",
					"numinlets" : 0,
					"numoutlets" : 1,
					"patching_rect" : [ 395.0, 39.0, 83.0, 17.0 ],
					"fontsize" : 9.0,
					"outlettype" : [ "int" ],
					"patcher" : 					{
						"fileversion" : 1,
						"rect" : [ 565.0, 105.0, 600.0, 426.0 ],
						"bglocked" : 0,
						"defrect" : [ 565.0, 105.0, 600.0, 426.0 ],
						"openrect" : [ 0.0, 0.0, 0.0, 0.0 ],
						"openinpresentation" : 0,
						"default_fontsize" : 12.0,
						"default_fontface" : 0,
						"default_fontname" : "Arial",
						"gridonopen" : 0,
						"gridsize" : [ 15.0, 15.0 ],
						"gridsnaponopen" : 0,
						"toolbarvisible" : 1,
						"boxanimatetime" : 200,
						"imprint" : 0,
						"boxes" : [ 							{
								"box" : 								{
									"maxclass" : "outlet",
									"id" : "obj-1",
									"numinlets" : 1,
									"numoutlets" : 0,
									"patching_rect" : [ 324.0, 359.0, 15.0, 15.0 ],
									"comment" : ""
								}

							}
, 							{
								"box" : 								{
									"maxclass" : "newobj",
									"text" : "if $i1 >2 then bang",
									"id" : "obj-2",
									"fontname" : "Arial",
									"numinlets" : 1,
									"numoutlets" : 1,
									"patching_rect" : [ 90.0, 299.0, 94.0, 17.0 ],
									"fontsize" : 9.0,
									"outlettype" : [ "" ]
								}

							}
, 							{
								"box" : 								{
									"maxclass" : "toggle",
									"id" : "obj-3",
									"numinlets" : 1,
									"numoutlets" : 1,
									"patching_rect" : [ 324.0, 332.0, 15.0, 15.0 ],
									"outlettype" : [ "int" ]
								}

							}
, 							{
								"box" : 								{
									"maxclass" : "message",
									"text" : "1",
									"id" : "obj-4",
									"fontname" : "Arial",
									"numinlets" : 2,
									"numoutlets" : 1,
									"patching_rect" : [ 471.0, 119.0, 16.0, 15.0 ],
									"fontsize" : 9.0,
									"outlettype" : [ "" ]
								}

							}
, 							{
								"box" : 								{
									"maxclass" : "message",
									"text" : "20",
									"id" : "obj-5",
									"fontname" : "Arial",
									"numinlets" : 2,
									"numoutlets" : 1,
									"patching_rect" : [ 424.0, 66.0, 20.0, 15.0 ],
									"fontsize" : 9.0,
									"outlettype" : [ "" ]
								}

							}
, 							{
								"box" : 								{
									"maxclass" : "newobj",
									"text" : "if $i1 >2 then bang",
									"id" : "obj-6",
									"fontname" : "Arial",
									"numinlets" : 1,
									"numoutlets" : 1,
									"patching_rect" : [ 258.0, 305.0, 94.0, 17.0 ],
									"fontsize" : 9.0,
									"outlettype" : [ "" ]
								}

							}
, 							{
								"box" : 								{
									"maxclass" : "newobj",
									"text" : "loadbang",
									"id" : "obj-7",
									"fontname" : "Arial",
									"numinlets" : 1,
									"numoutlets" : 1,
									"patching_rect" : [ 213.0, 41.0, 48.0, 17.0 ],
									"fontsize" : 9.0,
									"outlettype" : [ "bang" ]
								}

							}
, 							{
								"box" : 								{
									"maxclass" : "number",
									"id" : "obj-8",
									"fontname" : "Arial",
									"bgcolor" : [ 0.866667, 0.866667, 0.866667, 1.0 ],
									"numinlets" : 1,
									"triscale" : 0.9,
									"numoutlets" : 2,
									"patching_rect" : [ 168.0, 265.0, 35.0, 17.0 ],
									"fontsize" : 9.0,
									"htextcolor" : [ 0.870588, 0.870588, 0.870588, 1.0 ],
									"outlettype" : [ "int", "bang" ]
								}

							}
, 							{
								"box" : 								{
									"maxclass" : "number",
									"id" : "obj-9",
									"fontname" : "Arial",
									"bgcolor" : [ 0.866667, 0.866667, 0.866667, 1.0 ],
									"numinlets" : 1,
									"triscale" : 0.9,
									"numoutlets" : 2,
									"patching_rect" : [ 416.0, 100.0, 35.0, 17.0 ],
									"fontsize" : 9.0,
									"htextcolor" : [ 0.870588, 0.870588, 0.870588, 1.0 ],
									"outlettype" : [ "int", "bang" ]
								}

							}
, 							{
								"box" : 								{
									"maxclass" : "number",
									"minimum" : 0,
									"id" : "obj-10",
									"fontname" : "Arial",
									"bgcolor" : [ 0.866667, 0.866667, 0.866667, 1.0 ],
									"numinlets" : 1,
									"triscale" : 0.9,
									"numoutlets" : 2,
									"patching_rect" : [ 418.0, 137.0, 35.0, 17.0 ],
									"fontsize" : 9.0,
									"htextcolor" : [ 0.870588, 0.870588, 0.870588, 1.0 ],
									"outlettype" : [ "int", "bang" ]
								}

							}
, 							{
								"box" : 								{
									"maxclass" : "button",
									"id" : "obj-11",
									"numinlets" : 1,
									"numoutlets" : 1,
									"patching_rect" : [ 184.0, 83.0, 15.0, 15.0 ],
									"outlettype" : [ "bang" ]
								}

							}
, 							{
								"box" : 								{
									"maxclass" : "button",
									"id" : "obj-12",
									"numinlets" : 1,
									"numoutlets" : 1,
									"patching_rect" : [ 125.0, 148.0, 15.0, 15.0 ],
									"outlettype" : [ "bang" ]
								}

							}
, 							{
								"box" : 								{
									"maxclass" : "newobj",
									"text" : "patcher ++",
									"id" : "obj-13",
									"fontname" : "Arial",
									"numinlets" : 4,
									"numoutlets" : 1,
									"patching_rect" : [ 168.0, 201.0, 59.0, 17.0 ],
									"fontsize" : 9.0,
									"outlettype" : [ "int" ],
									"patcher" : 									{
										"fileversion" : 1,
										"rect" : [ 627.0, 294.0, 600.0, 426.0 ],
										"bglocked" : 0,
										"defrect" : [ 627.0, 294.0, 600.0, 426.0 ],
										"openrect" : [ 0.0, 0.0, 0.0, 0.0 ],
										"openinpresentation" : 0,
										"default_fontsize" : 12.0,
										"default_fontface" : 0,
										"default_fontname" : "Arial",
										"gridonopen" : 0,
										"gridsize" : [ 15.0, 15.0 ],
										"gridsnaponopen" : 0,
										"toolbarvisible" : 1,
										"boxanimatetime" : 200,
										"imprint" : 0,
										"boxes" : [ 											{
												"box" : 												{
													"maxclass" : "number",
													"id" : "obj-1",
													"fontname" : "Arial",
													"bgcolor" : [ 0.866667, 0.866667, 0.866667, 1.0 ],
													"numinlets" : 1,
													"triscale" : 0.9,
													"numoutlets" : 2,
													"patching_rect" : [ 229.0, 142.0, 35.0, 17.0 ],
													"fontsize" : 9.0,
													"htextcolor" : [ 0.870588, 0.870588, 0.870588, 1.0 ],
													"outlettype" : [ "int", "bang" ]
												}

											}
, 											{
												"box" : 												{
													"maxclass" : "inlet",
													"id" : "obj-2",
													"numinlets" : 0,
													"numoutlets" : 1,
													"patching_rect" : [ 262.0, 111.0, 15.0, 15.0 ],
													"outlettype" : [ "int" ],
													"comment" : ""
												}

											}
, 											{
												"box" : 												{
													"maxclass" : "outlet",
													"id" : "obj-3",
													"numinlets" : 1,
													"numoutlets" : 0,
													"patching_rect" : [ 333.0, 315.0, 15.0, 15.0 ],
													"comment" : ""
												}

											}
, 											{
												"box" : 												{
													"maxclass" : "number",
													"id" : "obj-4",
													"fontname" : "Arial",
													"bgcolor" : [ 0.866667, 0.866667, 0.866667, 1.0 ],
													"numinlets" : 1,
													"triscale" : 0.9,
													"numoutlets" : 2,
													"patching_rect" : [ 333.0, 281.0, 35.0, 17.0 ],
													"fontsize" : 9.0,
													"htextcolor" : [ 0.870588, 0.870588, 0.870588, 1.0 ],
													"outlettype" : [ "int", "bang" ]
												}

											}
, 											{
												"box" : 												{
													"maxclass" : "inlet",
													"id" : "obj-5",
													"numinlets" : 0,
													"numoutlets" : 1,
													"patching_rect" : [ 256.0, 27.0, 15.0, 15.0 ],
													"outlettype" : [ "int" ],
													"comment" : ""
												}

											}
, 											{
												"box" : 												{
													"maxclass" : "inlet",
													"id" : "obj-6",
													"numinlets" : 0,
													"numoutlets" : 1,
													"patching_rect" : [ 208.0, 26.0, 15.0, 15.0 ],
													"outlettype" : [ "bang" ],
													"comment" : ""
												}

											}
, 											{
												"box" : 												{
													"maxclass" : "inlet",
													"id" : "obj-7",
													"numinlets" : 0,
													"numoutlets" : 1,
													"patching_rect" : [ 168.0, 26.0, 15.0, 15.0 ],
													"outlettype" : [ "bang" ],
													"comment" : ""
												}

											}
, 											{
												"box" : 												{
													"maxclass" : "number",
													"minimum" : 20,
													"id" : "obj-8",
													"fontname" : "Arial",
													"bgcolor" : [ 0.866667, 0.866667, 0.866667, 1.0 ],
													"maximum" : 500,
													"numinlets" : 1,
													"triscale" : 0.9,
													"numoutlets" : 2,
													"patching_rect" : [ 256.0, 57.0, 35.0, 17.0 ],
													"fontsize" : 9.0,
													"htextcolor" : [ 0.870588, 0.870588, 0.870588, 1.0 ],
													"outlettype" : [ "int", "bang" ]
												}

											}
, 											{
												"box" : 												{
													"maxclass" : "message",
													"text" : "0",
													"id" : "obj-9",
													"fontname" : "Arial",
													"numinlets" : 2,
													"numoutlets" : 1,
													"patching_rect" : [ 168.0, 51.0, 21.0, 15.0 ],
													"fontsize" : 9.0,
													"outlettype" : [ "" ]
												}

											}
, 											{
												"box" : 												{
													"maxclass" : "message",
													"text" : "13",
													"hidden" : 1,
													"id" : "obj-10",
													"fontname" : "Arial",
													"numinlets" : 2,
													"numoutlets" : 1,
													"patching_rect" : [ 140.0, 197.0, 50.0, 15.0 ],
													"fontsize" : 9.0,
													"outlettype" : [ "" ]
												}

											}
, 											{
												"box" : 												{
													"maxclass" : "newobj",
													"text" : "prepend set",
													"hidden" : 1,
													"id" : "obj-11",
													"fontname" : "Arial",
													"numinlets" : 1,
													"numoutlets" : 1,
													"patching_rect" : [ 168.0, 269.0, 62.0, 17.0 ],
													"fontsize" : 9.0,
													"outlettype" : [ "" ]
												}

											}
, 											{
												"box" : 												{
													"maxclass" : "number",
													"id" : "obj-12",
													"fontname" : "Arial",
													"bgcolor" : [ 0.866667, 0.866667, 0.866667, 1.0 ],
													"numinlets" : 1,
													"triscale" : 0.9,
													"numoutlets" : 2,
													"patching_rect" : [ 168.0, 238.0, 35.0, 17.0 ],
													"fontsize" : 9.0,
													"htextcolor" : [ 0.870588, 0.870588, 0.870588, 1.0 ],
													"outlettype" : [ "int", "bang" ]
												}

											}
, 											{
												"box" : 												{
													"maxclass" : "newobj",
													"text" : "+",
													"id" : "obj-13",
													"fontname" : "Arial",
													"numinlets" : 2,
													"numoutlets" : 1,
													"patching_rect" : [ 185.0, 206.0, 27.0, 17.0 ],
													"fontsize" : 9.0,
													"outlettype" : [ "int" ]
												}

											}
, 											{
												"box" : 												{
													"maxclass" : "toggle",
													"id" : "obj-14",
													"numinlets" : 1,
													"numoutlets" : 1,
													"patching_rect" : [ 208.0, 51.0, 15.0, 15.0 ],
													"outlettype" : [ "int" ]
												}

											}
, 											{
												"box" : 												{
													"maxclass" : "newobj",
													"text" : "metro",
													"id" : "obj-15",
													"fontname" : "Arial",
													"numinlets" : 2,
													"numoutlets" : 1,
													"patching_rect" : [ 208.0, 98.0, 37.0, 17.0 ],
													"fontsize" : 9.0,
													"outlettype" : [ "bang" ]
												}

											}
, 											{
												"box" : 												{
													"maxclass" : "comment",
													"text" : "waarde omhoog per 500 milisec.",
													"linecount" : 2,
													"id" : "obj-16",
													"fontname" : "Arial",
													"numinlets" : 1,
													"numoutlets" : 0,
													"patching_rect" : [ 247.0, 157.0, 100.0, 27.0 ],
													"fontsize" : 9.0
												}

											}
, 											{
												"box" : 												{
													"maxclass" : "comment",
													"text" : "teller",
													"id" : "obj-17",
													"fontname" : "Arial",
													"numinlets" : 1,
													"numoutlets" : 0,
													"patching_rect" : [ 208.0, 239.0, 100.0, 17.0 ],
													"fontsize" : 9.0
												}

											}
, 											{
												"box" : 												{
													"maxclass" : "comment",
													"text" : "reset",
													"id" : "obj-18",
													"fontname" : "Arial",
													"numinlets" : 1,
													"numoutlets" : 0,
													"patching_rect" : [ 131.0, 51.0, 31.0, 17.0 ],
													"fontsize" : 9.0
												}

											}
, 											{
												"box" : 												{
													"maxclass" : "comment",
													"text" : "snelheid",
													"id" : "obj-19",
													"fontname" : "Arial",
													"numinlets" : 1,
													"numoutlets" : 0,
													"patching_rect" : [ 297.0, 58.0, 46.0, 17.0 ],
													"fontsize" : 9.0
												}

											}
, 											{
												"box" : 												{
													"maxclass" : "comment",
													"text" : "operand -/+*",
													"id" : "obj-20",
													"fontname" : "Arial",
													"numinlets" : 1,
													"numoutlets" : 0,
													"patching_rect" : [ 215.0, 207.0, 72.0, 17.0 ],
													"fontsize" : 9.0
												}

											}
 ],
										"lines" : [ 											{
												"patchline" : 												{
													"source" : [ "obj-4", 0 ],
													"destination" : [ "obj-3", 0 ],
													"hidden" : 0,
													"midpoints" : [  ]
												}

											}
, 											{
												"patchline" : 												{
													"source" : [ "obj-12", 0 ],
													"destination" : [ "obj-4", 0 ],
													"hidden" : 0,
													"midpoints" : [ 177.5, 267.0, 342.5, 267.0 ]
												}

											}
, 											{
												"patchline" : 												{
													"source" : [ "obj-5", 0 ],
													"destination" : [ "obj-8", 0 ],
													"hidden" : 0,
													"midpoints" : [  ]
												}

											}
, 											{
												"patchline" : 												{
													"source" : [ "obj-8", 0 ],
													"destination" : [ "obj-15", 1 ],
													"hidden" : 0,
													"midpoints" : [ 265.5, 85.0, 235.5, 85.0 ]
												}

											}
, 											{
												"patchline" : 												{
													"source" : [ "obj-2", 0 ],
													"destination" : [ "obj-1", 0 ],
													"hidden" : 0,
													"midpoints" : [ 271.0, 134.0, 238.5, 134.0 ]
												}

											}
, 											{
												"patchline" : 												{
													"source" : [ "obj-14", 0 ],
													"destination" : [ "obj-15", 0 ],
													"hidden" : 0,
													"midpoints" : [ 217.0, 93.0, 217.5, 93.0 ]
												}

											}
, 											{
												"patchline" : 												{
													"source" : [ "obj-6", 0 ],
													"destination" : [ "obj-14", 0 ],
													"hidden" : 0,
													"midpoints" : [  ]
												}

											}
, 											{
												"patchline" : 												{
													"source" : [ "obj-1", 0 ],
													"destination" : [ "obj-13", 1 ],
													"hidden" : 0,
													"midpoints" : [ 238.5, 181.0, 202.5, 181.0 ]
												}

											}
, 											{
												"patchline" : 												{
													"source" : [ "obj-10", 0 ],
													"destination" : [ "obj-13", 0 ],
													"hidden" : 1,
													"midpoints" : [ 149.5, 278.0, 66.0, 278.0, 66.0, 131.0, 194.5, 131.0 ]
												}

											}
, 											{
												"patchline" : 												{
													"source" : [ "obj-12", 0 ],
													"destination" : [ "obj-11", 0 ],
													"hidden" : 1,
													"midpoints" : [  ]
												}

											}
, 											{
												"patchline" : 												{
													"source" : [ "obj-9", 0 ],
													"destination" : [ "obj-12", 0 ],
													"hidden" : 1,
													"midpoints" : [ 177.5, 152.0, 177.5, 152.0 ]
												}

											}
, 											{
												"patchline" : 												{
													"source" : [ "obj-13", 0 ],
													"destination" : [ "obj-12", 0 ],
													"hidden" : 0,
													"midpoints" : [ 194.5, 230.0, 177.5, 230.0 ]
												}

											}
, 											{
												"patchline" : 												{
													"source" : [ "obj-7", 0 ],
													"destination" : [ "obj-9", 0 ],
													"hidden" : 0,
													"midpoints" : [  ]
												}

											}
, 											{
												"patchline" : 												{
													"source" : [ "obj-15", 0 ],
													"destination" : [ "obj-10", 0 ],
													"hidden" : 1,
													"midpoints" : [ 217.5, 177.0, 149.5, 177.0 ]
												}

											}
, 											{
												"patchline" : 												{
													"source" : [ "obj-11", 0 ],
													"destination" : [ "obj-10", 0 ],
													"hidden" : 1,
													"midpoints" : [ 177.5, 294.0, 66.0, 294.0, 66.0, 148.0, 149.5, 148.0 ]
												}

											}
 ]
									}
,
									"saved_object_attributes" : 									{
										"default_fontname" : "Arial",
										"default_fontsize" : 12.0,
										"fontname" : "Arial",
										"globalpatchername" : "",
										"fontface" : 0,
										"fontsize" : 12.0,
										"default_fontface" : 0
									}

								}

							}
, 							{
								"box" : 								{
									"maxclass" : "comment",
									"text" : "reset",
									"id" : "obj-14",
									"fontname" : "Arial",
									"numinlets" : 1,
									"numoutlets" : 0,
									"patching_rect" : [ 89.0, 149.0, 33.0, 17.0 ],
									"fontsize" : 9.0
								}

							}
, 							{
								"box" : 								{
									"maxclass" : "comment",
									"text" : "aanzetten",
									"id" : "obj-15",
									"fontname" : "Arial",
									"numinlets" : 1,
									"numoutlets" : 0,
									"patching_rect" : [ 130.0, 84.0, 52.0, 17.0 ],
									"fontsize" : 9.0
								}

							}
, 							{
								"box" : 								{
									"maxclass" : "comment",
									"text" : "aantal per stap",
									"id" : "obj-16",
									"fontname" : "Arial",
									"numinlets" : 1,
									"numoutlets" : 0,
									"patching_rect" : [ 344.0, 136.0, 88.0, 17.0 ],
									"fontsize" : 9.0
								}

							}
, 							{
								"box" : 								{
									"maxclass" : "comment",
									"text" : "snelheid in ms",
									"id" : "obj-17",
									"fontname" : "Arial",
									"numinlets" : 1,
									"numoutlets" : 0,
									"patching_rect" : [ 341.0, 101.0, 71.0, 17.0 ],
									"fontsize" : 9.0
								}

							}
, 							{
								"box" : 								{
									"maxclass" : "comment",
									"text" : "teller",
									"id" : "obj-18",
									"fontname" : "Arial",
									"numinlets" : 1,
									"numoutlets" : 0,
									"patching_rect" : [ 208.0, 267.0, 30.0, 17.0 ],
									"fontsize" : 9.0
								}

							}
, 							{
								"box" : 								{
									"maxclass" : "comment",
									"text" : "Oplopende teller",
									"id" : "obj-19",
									"fontname" : "Arial",
									"numinlets" : 1,
									"numoutlets" : 0,
									"patching_rect" : [ 82.0, 45.0, 100.0, 17.0 ],
									"fontsize" : 9.0
								}

							}
 ],
						"lines" : [ 							{
								"patchline" : 								{
									"source" : [ "obj-7", 0 ],
									"destination" : [ "obj-4", 0 ],
									"hidden" : 0,
									"midpoints" : [  ]
								}

							}
, 							{
								"patchline" : 								{
									"source" : [ "obj-7", 0 ],
									"destination" : [ "obj-5", 0 ],
									"hidden" : 0,
									"midpoints" : [  ]
								}

							}
, 							{
								"patchline" : 								{
									"source" : [ "obj-4", 0 ],
									"destination" : [ "obj-10", 0 ],
									"hidden" : 0,
									"midpoints" : [  ]
								}

							}
, 							{
								"patchline" : 								{
									"source" : [ "obj-5", 0 ],
									"destination" : [ "obj-9", 0 ],
									"hidden" : 0,
									"midpoints" : [  ]
								}

							}
, 							{
								"patchline" : 								{
									"source" : [ "obj-3", 0 ],
									"destination" : [ "obj-1", 0 ],
									"hidden" : 0,
									"midpoints" : [  ]
								}

							}
, 							{
								"patchline" : 								{
									"source" : [ "obj-6", 0 ],
									"destination" : [ "obj-3", 0 ],
									"hidden" : 0,
									"midpoints" : [  ]
								}

							}
, 							{
								"patchline" : 								{
									"source" : [ "obj-8", 0 ],
									"destination" : [ "obj-6", 0 ],
									"hidden" : 0,
									"midpoints" : [  ]
								}

							}
, 							{
								"patchline" : 								{
									"source" : [ "obj-10", 0 ],
									"destination" : [ "obj-13", 3 ],
									"hidden" : 0,
									"midpoints" : [ 427.5, 176.0, 217.5, 176.0 ]
								}

							}
, 							{
								"patchline" : 								{
									"source" : [ "obj-9", 0 ],
									"destination" : [ "obj-13", 2 ],
									"hidden" : 0,
									"midpoints" : [ 425.5, 123.0, 204.166672, 123.0 ]
								}

							}
, 							{
								"patchline" : 								{
									"source" : [ "obj-11", 0 ],
									"destination" : [ "obj-13", 1 ],
									"hidden" : 0,
									"midpoints" : [ 193.0, 124.0, 190.833328, 124.0 ]
								}

							}
, 							{
								"patchline" : 								{
									"source" : [ "obj-2", 0 ],
									"destination" : [ "obj-11", 0 ],
									"hidden" : 0,
									"midpoints" : [  ]
								}

							}
, 							{
								"patchline" : 								{
									"source" : [ "obj-7", 0 ],
									"destination" : [ "obj-11", 0 ],
									"hidden" : 0,
									"midpoints" : [  ]
								}

							}
, 							{
								"patchline" : 								{
									"source" : [ "obj-13", 0 ],
									"destination" : [ "obj-8", 0 ],
									"hidden" : 0,
									"midpoints" : [  ]
								}

							}
, 							{
								"patchline" : 								{
									"source" : [ "obj-12", 0 ],
									"destination" : [ "obj-13", 0 ],
									"hidden" : 0,
									"midpoints" : [ 134.0, 182.0, 177.5, 182.0 ]
								}

							}
, 							{
								"patchline" : 								{
									"source" : [ "obj-8", 0 ],
									"destination" : [ "obj-2", 0 ],
									"hidden" : 0,
									"midpoints" : [  ]
								}

							}
 ]
					}
,
					"saved_object_attributes" : 					{
						"default_fontname" : "Arial",
						"default_fontsize" : 12.0,
						"fontname" : "Arial",
						"globalpatchername" : "",
						"fontface" : 0,
						"fontsize" : 12.0,
						"default_fontface" : 0
					}

				}

			}
, 			{
				"box" : 				{
					"maxclass" : "message",
					"text" : "70",
					"id" : "obj-3",
					"fontname" : "Arial",
					"numinlets" : 2,
					"numoutlets" : 1,
					"patching_rect" : [ 503.0, 83.0, 20.0, 15.0 ],
					"fontsize" : 9.0,
					"outlettype" : [ "" ]
				}

			}
, 			{
				"box" : 				{
					"maxclass" : "newobj",
					"text" : "loadbang",
					"id" : "obj-4",
					"fontname" : "Arial",
					"numinlets" : 1,
					"numoutlets" : 1,
					"patching_rect" : [ 451.0, 83.0, 48.0, 17.0 ],
					"fontsize" : 9.0,
					"outlettype" : [ "bang" ]
				}

			}
, 			{
				"box" : 				{
					"maxclass" : "button",
					"id" : "obj-5",
					"numinlets" : 1,
					"numoutlets" : 1,
					"patching_rect" : [ 452.0, 543.0, 41.0, 41.0 ],
					"outlettype" : [ "bang" ]
				}

			}
, 			{
				"box" : 				{
					"maxclass" : "button",
					"id" : "obj-6",
					"numinlets" : 1,
					"numoutlets" : 1,
					"patching_rect" : [ 537.0, 496.0, 15.0, 15.0 ],
					"outlettype" : [ "bang" ]
				}

			}
, 			{
				"box" : 				{
					"maxclass" : "comment",
					"text" : "DONT SEND!",
					"linecount" : 2,
					"id" : "obj-7",
					"fontname" : "Arial",
					"numinlets" : 1,
					"numoutlets" : 0,
					"patching_rect" : [ 553.0, 498.0, 63.0, 27.0 ],
					"fontsize" : 9.0
				}

			}
, 			{
				"box" : 				{
					"maxclass" : "newobj",
					"text" : "patcher udp sender",
					"id" : "obj-8",
					"fontname" : "Arial",
					"numinlets" : 6,
					"numoutlets" : 1,
					"patching_rect" : [ 452.0, 520.0, 95.0, 17.0 ],
					"fontsize" : 9.0,
					"outlettype" : [ "" ],
					"patcher" : 					{
						"fileversion" : 1,
						"rect" : [ 255.0, 106.0, 731.0, 628.0 ],
						"bglocked" : 0,
						"defrect" : [ 255.0, 106.0, 731.0, 628.0 ],
						"openrect" : [ 0.0, 0.0, 0.0, 0.0 ],
						"openinpresentation" : 0,
						"default_fontsize" : 12.0,
						"default_fontface" : 0,
						"default_fontname" : "Arial",
						"gridonopen" : 0,
						"gridsize" : [ 15.0, 15.0 ],
						"gridsnaponopen" : 0,
						"toolbarvisible" : 1,
						"boxanimatetime" : 200,
						"imprint" : 0,
						"boxes" : [ 							{
								"box" : 								{
									"maxclass" : "newobj",
									"text" : "loadbang",
									"id" : "obj-1",
									"fontname" : "Arial",
									"numinlets" : 1,
									"numoutlets" : 1,
									"patching_rect" : [ 573.0, 272.0, 48.0, 17.0 ],
									"fontsize" : 9.0,
									"outlettype" : [ "bang" ]
								}

							}
, 							{
								"box" : 								{
									"maxclass" : "newobj",
									"text" : "loadbang",
									"id" : "obj-2",
									"fontname" : "Arial",
									"numinlets" : 1,
									"numoutlets" : 1,
									"patching_rect" : [ 91.0, 168.0, 48.0, 17.0 ],
									"fontsize" : 9.0,
									"outlettype" : [ "bang" ]
								}

							}
, 							{
								"box" : 								{
									"maxclass" : "toggle",
									"id" : "obj-3",
									"numinlets" : 1,
									"numoutlets" : 1,
									"patching_rect" : [ 91.0, 191.0, 15.0, 15.0 ],
									"outlettype" : [ "int" ]
								}

							}
, 							{
								"box" : 								{
									"maxclass" : "message",
									"text" : "data",
									"id" : "obj-4",
									"fontname" : "Arial",
									"numinlets" : 2,
									"numoutlets" : 1,
									"patching_rect" : [ 91.0, 218.0, 29.0, 15.0 ],
									"fontsize" : 9.0,
									"outlettype" : [ "" ]
								}

							}
, 							{
								"box" : 								{
									"maxclass" : "message",
									"text" : "data 0. 74. 0. 74.",
									"id" : "obj-5",
									"fontname" : "Arial",
									"numinlets" : 2,
									"numoutlets" : 1,
									"patching_rect" : [ 234.0, 352.0, 134.0, 15.0 ],
									"fontsize" : 9.0,
									"outlettype" : [ "" ]
								}

							}
, 							{
								"box" : 								{
									"maxclass" : "newobj",
									"text" : "prepend set",
									"id" : "obj-6",
									"fontname" : "Arial",
									"numinlets" : 1,
									"numoutlets" : 1,
									"patching_rect" : [ 234.0, 313.0, 62.0, 17.0 ],
									"fontsize" : 9.0,
									"outlettype" : [ "" ]
								}

							}
, 							{
								"box" : 								{
									"maxclass" : "newobj",
									"text" : "pack s f f f f",
									"id" : "obj-7",
									"fontname" : "Arial",
									"numinlets" : 5,
									"numoutlets" : 1,
									"patching_rect" : [ 223.0, 267.0, 66.0, 17.0 ],
									"fontsize" : 9.0,
									"outlettype" : [ "" ]
								}

							}
, 							{
								"box" : 								{
									"maxclass" : "newobj",
									"text" : "onebang",
									"id" : "obj-8",
									"fontname" : "Arial",
									"numinlets" : 2,
									"numoutlets" : 2,
									"patching_rect" : [ 419.0, 254.0, 45.0, 17.0 ],
									"fontsize" : 9.0,
									"outlettype" : [ "bang", "bang" ]
								}

							}
, 							{
								"box" : 								{
									"maxclass" : "button",
									"id" : "obj-9",
									"numinlets" : 1,
									"numoutlets" : 1,
									"patching_rect" : [ 520.0, 209.0, 15.0, 15.0 ],
									"outlettype" : [ "bang" ]
								}

							}
, 							{
								"box" : 								{
									"maxclass" : "comment",
									"text" : "dont send",
									"id" : "obj-10",
									"fontname" : "Arial",
									"numinlets" : 1,
									"numoutlets" : 0,
									"patching_rect" : [ 538.0, 166.0, 52.0, 17.0 ],
									"fontsize" : 9.0
								}

							}
, 							{
								"box" : 								{
									"maxclass" : "inlet",
									"id" : "obj-11",
									"numinlets" : 0,
									"numoutlets" : 1,
									"patching_rect" : [ 536.0, 181.0, 15.0, 15.0 ],
									"outlettype" : [ "bang" ],
									"comment" : ""
								}

							}
, 							{
								"box" : 								{
									"maxclass" : "newobj",
									"text" : "onebang",
									"id" : "obj-12",
									"fontname" : "Arial",
									"numinlets" : 2,
									"numoutlets" : 2,
									"patching_rect" : [ 481.0, 254.0, 45.0, 17.0 ],
									"fontsize" : 9.0,
									"outlettype" : [ "bang", "bang" ]
								}

							}
, 							{
								"box" : 								{
									"maxclass" : "button",
									"id" : "obj-13",
									"numinlets" : 1,
									"numoutlets" : 1,
									"patching_rect" : [ 461.0, 354.0, 15.0, 15.0 ],
									"outlettype" : [ "bang" ]
								}

							}
, 							{
								"box" : 								{
									"maxclass" : "newobj",
									"text" : "metro 10",
									"id" : "obj-14",
									"fontname" : "Arial",
									"numinlets" : 2,
									"numoutlets" : 1,
									"patching_rect" : [ 461.0, 322.0, 45.0, 17.0 ],
									"fontsize" : 9.0,
									"outlettype" : [ "bang" ]
								}

							}
, 							{
								"box" : 								{
									"maxclass" : "toggle",
									"id" : "obj-15",
									"numinlets" : 1,
									"numoutlets" : 1,
									"patching_rect" : [ 461.0, 292.0, 15.0, 15.0 ],
									"outlettype" : [ "int" ]
								}

							}
, 							{
								"box" : 								{
									"maxclass" : "button",
									"id" : "obj-16",
									"numinlets" : 1,
									"numoutlets" : 1,
									"patching_rect" : [ 448.0, 206.0, 15.0, 15.0 ],
									"outlettype" : [ "bang" ]
								}

							}
, 							{
								"box" : 								{
									"maxclass" : "number",
									"id" : "obj-17",
									"fontname" : "Arial",
									"bgcolor" : [ 0.866667, 0.866667, 0.866667, 1.0 ],
									"numinlets" : 1,
									"triscale" : 0.9,
									"numoutlets" : 2,
									"patching_rect" : [ 354.0, 213.0, 35.0, 17.0 ],
									"fontsize" : 9.0,
									"htextcolor" : [ 0.870588, 0.870588, 0.870588, 1.0 ],
									"outlettype" : [ "int", "bang" ]
								}

							}
, 							{
								"box" : 								{
									"maxclass" : "number",
									"id" : "obj-18",
									"fontname" : "Arial",
									"bgcolor" : [ 0.866667, 0.866667, 0.866667, 1.0 ],
									"numinlets" : 1,
									"triscale" : 0.9,
									"numoutlets" : 2,
									"patching_rect" : [ 302.0, 213.0, 35.0, 17.0 ],
									"fontsize" : 9.0,
									"htextcolor" : [ 0.870588, 0.870588, 0.870588, 1.0 ],
									"outlettype" : [ "int", "bang" ]
								}

							}
, 							{
								"box" : 								{
									"maxclass" : "number",
									"id" : "obj-19",
									"fontname" : "Arial",
									"bgcolor" : [ 0.866667, 0.866667, 0.866667, 1.0 ],
									"numinlets" : 1,
									"triscale" : 0.9,
									"numoutlets" : 2,
									"patching_rect" : [ 201.0, 213.0, 35.0, 17.0 ],
									"fontsize" : 9.0,
									"htextcolor" : [ 0.870588, 0.870588, 0.870588, 1.0 ],
									"outlettype" : [ "int", "bang" ]
								}

							}
, 							{
								"box" : 								{
									"maxclass" : "number",
									"id" : "obj-20",
									"fontname" : "Arial",
									"bgcolor" : [ 0.866667, 0.866667, 0.866667, 1.0 ],
									"numinlets" : 1,
									"triscale" : 0.9,
									"numoutlets" : 2,
									"patching_rect" : [ 148.0, 213.0, 35.0, 17.0 ],
									"fontsize" : 9.0,
									"htextcolor" : [ 0.870588, 0.870588, 0.870588, 1.0 ],
									"outlettype" : [ "int", "bang" ]
								}

							}
, 							{
								"box" : 								{
									"maxclass" : "comment",
									"text" : "send",
									"id" : "obj-21",
									"fontname" : "Arial",
									"numinlets" : 1,
									"numoutlets" : 0,
									"patching_rect" : [ 467.0, 166.0, 36.0, 17.0 ],
									"fontsize" : 9.0
								}

							}
, 							{
								"box" : 								{
									"maxclass" : "comment",
									"text" : "amplitude",
									"id" : "obj-22",
									"fontname" : "Arial",
									"numinlets" : 1,
									"numoutlets" : 0,
									"patching_rect" : [ 373.0, 184.0, 53.0, 17.0 ],
									"fontsize" : 9.0
								}

							}
, 							{
								"box" : 								{
									"maxclass" : "comment",
									"text" : "pitch",
									"id" : "obj-23",
									"fontname" : "Arial",
									"numinlets" : 1,
									"numoutlets" : 0,
									"patching_rect" : [ 319.0, 185.0, 32.0, 17.0 ],
									"fontsize" : 9.0
								}

							}
, 							{
								"box" : 								{
									"maxclass" : "inlet",
									"id" : "obj-24",
									"numinlets" : 0,
									"numoutlets" : 1,
									"patching_rect" : [ 355.0, 182.0, 15.0, 15.0 ],
									"outlettype" : [ "" ],
									"comment" : ""
								}

							}
, 							{
								"box" : 								{
									"maxclass" : "inlet",
									"id" : "obj-25",
									"numinlets" : 0,
									"numoutlets" : 1,
									"patching_rect" : [ 303.0, 182.0, 15.0, 15.0 ],
									"outlettype" : [ "" ],
									"comment" : ""
								}

							}
, 							{
								"box" : 								{
									"maxclass" : "comment",
									"text" : "right",
									"id" : "obj-26",
									"fontname" : "Arial",
									"numinlets" : 1,
									"numoutlets" : 0,
									"patching_rect" : [ 302.0, 166.0, 100.0, 17.0 ],
									"fontsize" : 9.0
								}

							}
, 							{
								"box" : 								{
									"maxclass" : "comment",
									"text" : "amplitude",
									"id" : "obj-27",
									"fontname" : "Arial",
									"numinlets" : 1,
									"numoutlets" : 0,
									"patching_rect" : [ 220.0, 186.0, 53.0, 17.0 ],
									"fontsize" : 9.0
								}

							}
, 							{
								"box" : 								{
									"maxclass" : "comment",
									"text" : "pitch",
									"id" : "obj-28",
									"fontname" : "Arial",
									"numinlets" : 1,
									"numoutlets" : 0,
									"patching_rect" : [ 166.0, 187.0, 32.0, 17.0 ],
									"fontsize" : 9.0
								}

							}
, 							{
								"box" : 								{
									"maxclass" : "inlet",
									"id" : "obj-29",
									"numinlets" : 0,
									"numoutlets" : 1,
									"patching_rect" : [ 468.0, 180.0, 15.0, 15.0 ],
									"outlettype" : [ "bang" ],
									"comment" : ""
								}

							}
, 							{
								"box" : 								{
									"maxclass" : "inlet",
									"id" : "obj-30",
									"numinlets" : 0,
									"numoutlets" : 1,
									"patching_rect" : [ 202.0, 184.0, 15.0, 15.0 ],
									"outlettype" : [ "" ],
									"comment" : ""
								}

							}
, 							{
								"box" : 								{
									"maxclass" : "inlet",
									"id" : "obj-31",
									"numinlets" : 0,
									"numoutlets" : 1,
									"patching_rect" : [ 150.0, 184.0, 15.0, 15.0 ],
									"outlettype" : [ "" ],
									"comment" : ""
								}

							}
, 							{
								"box" : 								{
									"maxclass" : "comment",
									"text" : "data send",
									"id" : "obj-32",
									"fontname" : "Arial",
									"numinlets" : 1,
									"numoutlets" : 0,
									"patching_rect" : [ 179.0, 452.0, 52.0, 17.0 ],
									"fontsize" : 9.0
								}

							}
, 							{
								"box" : 								{
									"maxclass" : "outlet",
									"id" : "obj-33",
									"numinlets" : 1,
									"numoutlets" : 0,
									"patching_rect" : [ 234.0, 450.0, 15.0, 15.0 ],
									"comment" : ""
								}

							}
, 							{
								"box" : 								{
									"maxclass" : "newobj",
									"text" : "t b s",
									"id" : "obj-34",
									"fontname" : "Arial",
									"numinlets" : 1,
									"numoutlets" : 2,
									"patching_rect" : [ 234.0, 380.0, 29.0, 17.0 ],
									"fontsize" : 9.0,
									"outlettype" : [ "bang", "" ]
								}

							}
, 							{
								"box" : 								{
									"maxclass" : "newobj",
									"text" : "OpenSoundControl",
									"id" : "obj-35",
									"fontname" : "Arial",
									"numinlets" : 1,
									"numoutlets" : 1,
									"patching_rect" : [ 234.0, 415.0, 86.0, 17.0 ],
									"fontsize" : 9.0,
									"outlettype" : [ "" ]
								}

							}
, 							{
								"box" : 								{
									"maxclass" : "newobj",
									"text" : "udpsend 127.0.0.1 7000",
									"id" : "obj-36",
									"fontname" : "Arial",
									"numinlets" : 1,
									"numoutlets" : 0,
									"patching_rect" : [ 257.0, 449.0, 127.0, 17.0 ],
									"fontsize" : 9.0
								}

							}
, 							{
								"box" : 								{
									"maxclass" : "comment",
									"text" : "left",
									"id" : "obj-37",
									"fontname" : "Arial",
									"numinlets" : 1,
									"numoutlets" : 0,
									"patching_rect" : [ 149.0, 168.0, 100.0, 17.0 ],
									"fontsize" : 9.0
								}

							}
 ],
						"lines" : [ 							{
								"patchline" : 								{
									"source" : [ "obj-11", 0 ],
									"destination" : [ "obj-9", 0 ],
									"hidden" : 0,
									"midpoints" : [  ]
								}

							}
, 							{
								"patchline" : 								{
									"source" : [ "obj-16", 0 ],
									"destination" : [ "obj-12", 1 ],
									"hidden" : 0,
									"midpoints" : [  ]
								}

							}
, 							{
								"patchline" : 								{
									"source" : [ "obj-9", 0 ],
									"destination" : [ "obj-12", 0 ],
									"hidden" : 0,
									"midpoints" : [  ]
								}

							}
, 							{
								"patchline" : 								{
									"source" : [ "obj-14", 0 ],
									"destination" : [ "obj-13", 0 ],
									"hidden" : 0,
									"midpoints" : [  ]
								}

							}
, 							{
								"patchline" : 								{
									"source" : [ "obj-15", 0 ],
									"destination" : [ "obj-14", 0 ],
									"hidden" : 0,
									"midpoints" : [  ]
								}

							}
, 							{
								"patchline" : 								{
									"source" : [ "obj-12", 0 ],
									"destination" : [ "obj-15", 0 ],
									"hidden" : 0,
									"midpoints" : [  ]
								}

							}
, 							{
								"patchline" : 								{
									"source" : [ "obj-8", 0 ],
									"destination" : [ "obj-15", 0 ],
									"hidden" : 0,
									"midpoints" : [  ]
								}

							}
, 							{
								"patchline" : 								{
									"source" : [ "obj-1", 0 ],
									"destination" : [ "obj-15", 0 ],
									"hidden" : 0,
									"midpoints" : [  ]
								}

							}
, 							{
								"patchline" : 								{
									"source" : [ "obj-9", 0 ],
									"destination" : [ "obj-8", 1 ],
									"hidden" : 0,
									"midpoints" : [  ]
								}

							}
, 							{
								"patchline" : 								{
									"source" : [ "obj-29", 0 ],
									"destination" : [ "obj-16", 0 ],
									"hidden" : 0,
									"midpoints" : [  ]
								}

							}
, 							{
								"patchline" : 								{
									"source" : [ "obj-16", 0 ],
									"destination" : [ "obj-8", 0 ],
									"hidden" : 0,
									"midpoints" : [  ]
								}

							}
, 							{
								"patchline" : 								{
									"source" : [ "obj-24", 0 ],
									"destination" : [ "obj-17", 0 ],
									"hidden" : 0,
									"midpoints" : [  ]
								}

							}
, 							{
								"patchline" : 								{
									"source" : [ "obj-25", 0 ],
									"destination" : [ "obj-18", 0 ],
									"hidden" : 0,
									"midpoints" : [  ]
								}

							}
, 							{
								"patchline" : 								{
									"source" : [ "obj-24", 0 ],
									"destination" : [ "obj-7", 4 ],
									"hidden" : 0,
									"midpoints" : [  ]
								}

							}
, 							{
								"patchline" : 								{
									"source" : [ "obj-25", 0 ],
									"destination" : [ "obj-7", 3 ],
									"hidden" : 0,
									"midpoints" : [  ]
								}

							}
, 							{
								"patchline" : 								{
									"source" : [ "obj-35", 0 ],
									"destination" : [ "obj-36", 0 ],
									"hidden" : 0,
									"midpoints" : [ 243.5, 439.0, 266.5, 439.0 ]
								}

							}
, 							{
								"patchline" : 								{
									"source" : [ "obj-30", 0 ],
									"destination" : [ "obj-7", 2 ],
									"hidden" : 0,
									"midpoints" : [  ]
								}

							}
, 							{
								"patchline" : 								{
									"source" : [ "obj-31", 0 ],
									"destination" : [ "obj-7", 1 ],
									"hidden" : 0,
									"midpoints" : [  ]
								}

							}
, 							{
								"patchline" : 								{
									"source" : [ "obj-35", 0 ],
									"destination" : [ "obj-33", 0 ],
									"hidden" : 0,
									"midpoints" : [ 243.5, 441.0, 243.0, 441.0 ]
								}

							}
, 							{
								"patchline" : 								{
									"source" : [ "obj-34", 0 ],
									"destination" : [ "obj-35", 0 ],
									"hidden" : 0,
									"midpoints" : [ 243.5, 406.0, 243.5, 406.0 ]
								}

							}
, 							{
								"patchline" : 								{
									"source" : [ "obj-34", 1 ],
									"destination" : [ "obj-35", 0 ],
									"hidden" : 0,
									"midpoints" : [ 253.5, 406.0, 243.5, 406.0 ]
								}

							}
, 							{
								"patchline" : 								{
									"source" : [ "obj-5", 0 ],
									"destination" : [ "obj-34", 0 ],
									"hidden" : 0,
									"midpoints" : [  ]
								}

							}
, 							{
								"patchline" : 								{
									"source" : [ "obj-6", 0 ],
									"destination" : [ "obj-5", 0 ],
									"hidden" : 0,
									"midpoints" : [  ]
								}

							}
, 							{
								"patchline" : 								{
									"source" : [ "obj-14", 0 ],
									"destination" : [ "obj-5", 0 ],
									"hidden" : 0,
									"midpoints" : [  ]
								}

							}
, 							{
								"patchline" : 								{
									"source" : [ "obj-7", 0 ],
									"destination" : [ "obj-6", 0 ],
									"hidden" : 0,
									"midpoints" : [  ]
								}

							}
, 							{
								"patchline" : 								{
									"source" : [ "obj-4", 0 ],
									"destination" : [ "obj-7", 0 ],
									"hidden" : 0,
									"midpoints" : [  ]
								}

							}
, 							{
								"patchline" : 								{
									"source" : [ "obj-14", 0 ],
									"destination" : [ "obj-7", 0 ],
									"hidden" : 0,
									"midpoints" : [  ]
								}

							}
, 							{
								"patchline" : 								{
									"source" : [ "obj-30", 0 ],
									"destination" : [ "obj-19", 0 ],
									"hidden" : 0,
									"midpoints" : [  ]
								}

							}
, 							{
								"patchline" : 								{
									"source" : [ "obj-31", 0 ],
									"destination" : [ "obj-20", 0 ],
									"hidden" : 0,
									"midpoints" : [  ]
								}

							}
, 							{
								"patchline" : 								{
									"source" : [ "obj-3", 0 ],
									"destination" : [ "obj-4", 0 ],
									"hidden" : 0,
									"midpoints" : [  ]
								}

							}
, 							{
								"patchline" : 								{
									"source" : [ "obj-2", 0 ],
									"destination" : [ "obj-3", 0 ],
									"hidden" : 0,
									"midpoints" : [  ]
								}

							}
 ]
					}
,
					"saved_object_attributes" : 					{
						"default_fontname" : "Arial",
						"default_fontsize" : 12.0,
						"fontname" : "Arial",
						"globalpatchername" : "",
						"fontface" : 0,
						"fontsize" : 12.0,
						"default_fontface" : 0
					}

				}

			}
, 			{
				"box" : 				{
					"maxclass" : "button",
					"id" : "obj-9",
					"numinlets" : 1,
					"numoutlets" : 1,
					"patching_rect" : [ 451.0, 492.0, 15.0, 15.0 ],
					"outlettype" : [ "bang" ]
				}

			}
, 			{
				"box" : 				{
					"maxclass" : "newobj",
					"text" : "patcher signal valid?",
					"id" : "obj-10",
					"fontname" : "Arial",
					"numinlets" : 2,
					"numoutlets" : 2,
					"patching_rect" : [ 451.0, 470.0, 104.0, 17.0 ],
					"fontsize" : 9.0,
					"outlettype" : [ "", "" ],
					"patcher" : 					{
						"fileversion" : 1,
						"rect" : [ 499.0, 155.0, 600.0, 426.0 ],
						"bglocked" : 0,
						"defrect" : [ 499.0, 155.0, 600.0, 426.0 ],
						"openrect" : [ 0.0, 0.0, 0.0, 0.0 ],
						"openinpresentation" : 0,
						"default_fontsize" : 12.0,
						"default_fontface" : 0,
						"default_fontname" : "Arial",
						"gridonopen" : 0,
						"gridsize" : [ 15.0, 15.0 ],
						"gridsnaponopen" : 0,
						"toolbarvisible" : 1,
						"boxanimatetime" : 200,
						"imprint" : 0,
						"boxes" : [ 							{
								"box" : 								{
									"maxclass" : "outlet",
									"id" : "obj-1",
									"numinlets" : 1,
									"numoutlets" : 0,
									"patching_rect" : [ 305.0, 249.0, 15.0, 15.0 ],
									"comment" : ""
								}

							}
, 							{
								"box" : 								{
									"maxclass" : "newobj",
									"text" : "loadbang",
									"id" : "obj-2",
									"fontname" : "Arial",
									"numinlets" : 1,
									"numoutlets" : 1,
									"patching_rect" : [ 200.0, 40.0, 48.0, 17.0 ],
									"fontsize" : 9.0,
									"outlettype" : [ "bang" ]
								}

							}
, 							{
								"box" : 								{
									"maxclass" : "toggle",
									"id" : "obj-3",
									"numinlets" : 1,
									"numoutlets" : 1,
									"patching_rect" : [ 197.0, 70.0, 15.0, 15.0 ],
									"outlettype" : [ "int" ]
								}

							}
, 							{
								"box" : 								{
									"maxclass" : "button",
									"id" : "obj-4",
									"numinlets" : 1,
									"numoutlets" : 1,
									"patching_rect" : [ 108.0, 227.0, 15.0, 15.0 ],
									"outlettype" : [ "bang" ]
								}

							}
, 							{
								"box" : 								{
									"maxclass" : "newobj",
									"text" : "metro 1",
									"id" : "obj-5",
									"fontname" : "Arial",
									"numinlets" : 2,
									"numoutlets" : 1,
									"patching_rect" : [ 196.0, 116.0, 46.0, 17.0 ],
									"fontsize" : 9.0,
									"outlettype" : [ "bang" ]
								}

							}
, 							{
								"box" : 								{
									"maxclass" : "newobj",
									"text" : "if $i1 == 1 || $i2 == 1 then bang else out2 bang",
									"id" : "obj-6",
									"fontname" : "Arial",
									"numinlets" : 2,
									"numoutlets" : 2,
									"patching_rect" : [ 160.0, 194.0, 220.0, 17.0 ],
									"fontsize" : 9.0,
									"outlettype" : [ "", "" ]
								}

							}
, 							{
								"box" : 								{
									"maxclass" : "outlet",
									"id" : "obj-7",
									"numinlets" : 1,
									"numoutlets" : 0,
									"patching_rect" : [ 215.0, 246.0, 15.0, 15.0 ],
									"comment" : ""
								}

							}
, 							{
								"box" : 								{
									"maxclass" : "inlet",
									"id" : "obj-8",
									"numinlets" : 0,
									"numoutlets" : 1,
									"patching_rect" : [ 302.0, 130.0, 15.0, 15.0 ],
									"outlettype" : [ "int" ],
									"comment" : ""
								}

							}
, 							{
								"box" : 								{
									"maxclass" : "inlet",
									"id" : "obj-9",
									"numinlets" : 0,
									"numoutlets" : 1,
									"patching_rect" : [ 153.0, 132.0, 15.0, 15.0 ],
									"outlettype" : [ "int" ],
									"comment" : ""
								}

							}
 ],
						"lines" : [ 							{
								"patchline" : 								{
									"source" : [ "obj-8", 0 ],
									"destination" : [ "obj-6", 1 ],
									"hidden" : 0,
									"midpoints" : [  ]
								}

							}
, 							{
								"patchline" : 								{
									"source" : [ "obj-6", 1 ],
									"destination" : [ "obj-1", 0 ],
									"hidden" : 0,
									"midpoints" : [  ]
								}

							}
, 							{
								"patchline" : 								{
									"source" : [ "obj-6", 0 ],
									"destination" : [ "obj-7", 0 ],
									"hidden" : 0,
									"midpoints" : [  ]
								}

							}
, 							{
								"patchline" : 								{
									"source" : [ "obj-2", 0 ],
									"destination" : [ "obj-3", 0 ],
									"hidden" : 0,
									"midpoints" : [  ]
								}

							}
, 							{
								"patchline" : 								{
									"source" : [ "obj-3", 0 ],
									"destination" : [ "obj-5", 0 ],
									"hidden" : 0,
									"midpoints" : [  ]
								}

							}
, 							{
								"patchline" : 								{
									"source" : [ "obj-5", 0 ],
									"destination" : [ "obj-6", 0 ],
									"hidden" : 0,
									"midpoints" : [  ]
								}

							}
, 							{
								"patchline" : 								{
									"source" : [ "obj-9", 0 ],
									"destination" : [ "obj-6", 0 ],
									"hidden" : 0,
									"midpoints" : [  ]
								}

							}
, 							{
								"patchline" : 								{
									"source" : [ "obj-6", 0 ],
									"destination" : [ "obj-4", 0 ],
									"hidden" : 0,
									"midpoints" : [  ]
								}

							}
 ]
					}
,
					"saved_object_attributes" : 					{
						"default_fontname" : "Arial",
						"default_fontsize" : 12.0,
						"fontname" : "Arial",
						"globalpatchername" : "",
						"fontface" : 0,
						"fontsize" : 12.0,
						"default_fontface" : 0
					}

				}

			}
, 			{
				"box" : 				{
					"maxclass" : "comment",
					"text" : "amplitude",
					"id" : "obj-11",
					"fontname" : "Arial",
					"numinlets" : 1,
					"numoutlets" : 0,
					"patching_rect" : [ 311.0, 469.0, 53.0, 17.0 ],
					"fontsize" : 9.0
				}

			}
, 			{
				"box" : 				{
					"maxclass" : "number",
					"id" : "obj-12",
					"fontname" : "Arial",
					"bgcolor" : [ 0.866667, 0.866667, 0.866667, 1.0 ],
					"numinlets" : 1,
					"triscale" : 0.9,
					"numoutlets" : 2,
					"patching_rect" : [ 359.0, 467.0, 35.0, 17.0 ],
					"fontsize" : 9.0,
					"htextcolor" : [ 0.870588, 0.870588, 0.870588, 1.0 ],
					"outlettype" : [ "int", "bang" ]
				}

			}
, 			{
				"box" : 				{
					"maxclass" : "number",
					"id" : "obj-13",
					"fontname" : "Arial",
					"bgcolor" : [ 0.866667, 0.866667, 0.866667, 1.0 ],
					"numinlets" : 1,
					"triscale" : 0.9,
					"numoutlets" : 2,
					"patching_rect" : [ 136.0, 467.0, 35.0, 17.0 ],
					"fontsize" : 9.0,
					"htextcolor" : [ 0.870588, 0.870588, 0.870588, 1.0 ],
					"outlettype" : [ "int", "bang" ]
				}

			}
, 			{
				"box" : 				{
					"maxclass" : "newobj",
					"text" : "if $i1 == 1 then set $i2 else set $i3",
					"id" : "obj-14",
					"fontname" : "Arial",
					"numinlets" : 3,
					"numoutlets" : 1,
					"patching_rect" : [ 0.0, 438.0, 172.0, 17.0 ],
					"fontsize" : 9.0,
					"outlettype" : [ "" ]
				}

			}
, 			{
				"box" : 				{
					"maxclass" : "toggle",
					"id" : "obj-15",
					"numinlets" : 1,
					"numoutlets" : 1,
					"patching_rect" : [ 311.0, 164.0, 15.0, 15.0 ],
					"outlettype" : [ "int" ]
				}

			}
, 			{
				"box" : 				{
					"maxclass" : "newobj",
					"text" : "metro 1",
					"id" : "obj-16",
					"fontname" : "Arial",
					"numinlets" : 2,
					"numoutlets" : 1,
					"patching_rect" : [ 311.0, 186.0, 46.0, 17.0 ],
					"fontsize" : 9.0,
					"outlettype" : [ "bang" ]
				}

			}
, 			{
				"box" : 				{
					"maxclass" : "newobj",
					"text" : "if $i1 == 1 then set $i2 else set $i3",
					"id" : "obj-17",
					"fontname" : "Arial",
					"numinlets" : 3,
					"numoutlets" : 1,
					"patching_rect" : [ 221.0, 438.0, 172.0, 17.0 ],
					"fontsize" : 9.0,
					"outlettype" : [ "" ]
				}

			}
, 			{
				"box" : 				{
					"maxclass" : "number",
					"id" : "obj-18",
					"fontname" : "Arial",
					"bgcolor" : [ 0.866667, 0.866667, 0.866667, 1.0 ],
					"numinlets" : 1,
					"triscale" : 0.9,
					"numoutlets" : 2,
					"patching_rect" : [ 177.0, 242.0, 35.0, 17.0 ],
					"fontsize" : 9.0,
					"htextcolor" : [ 0.870588, 0.870588, 0.870588, 1.0 ],
					"outlettype" : [ "int", "bang" ]
				}

			}
, 			{
				"box" : 				{
					"maxclass" : "number",
					"id" : "obj-19",
					"fontname" : "Arial",
					"bgcolor" : [ 0.866667, 0.866667, 0.866667, 1.0 ],
					"numinlets" : 1,
					"triscale" : 0.9,
					"numoutlets" : 2,
					"patching_rect" : [ 349.0, 309.0, 35.0, 17.0 ],
					"fontsize" : 9.0,
					"htextcolor" : [ 0.870588, 0.870588, 0.870588, 1.0 ],
					"outlettype" : [ "int", "bang" ]
				}

			}
, 			{
				"box" : 				{
					"maxclass" : "slider",
					"id" : "obj-20",
					"numinlets" : 1,
					"numoutlets" : 1,
					"patching_rect" : [ 203.0, 308.0, 144.0, 18.0 ],
					"outlettype" : [ "" ],
					"orientation" : 1
				}

			}
, 			{
				"box" : 				{
					"maxclass" : "toggle",
					"id" : "obj-21",
					"numinlets" : 1,
					"numoutlets" : 1,
					"patching_rect" : [ 59.0, 310.0, 15.0, 15.0 ],
					"outlettype" : [ "int" ]
				}

			}
, 			{
				"box" : 				{
					"maxclass" : "newobj",
					"text" : "patcher validate volume",
					"id" : "obj-22",
					"fontname" : "Arial",
					"numinlets" : 2,
					"numoutlets" : 1,
					"patching_rect" : [ 79.0, 309.0, 118.0, 17.0 ],
					"fontsize" : 9.0,
					"outlettype" : [ "int" ],
					"patcher" : 					{
						"fileversion" : 1,
						"rect" : [ 583.0, 214.0, 600.0, 426.0 ],
						"bglocked" : 0,
						"defrect" : [ 583.0, 214.0, 600.0, 426.0 ],
						"openrect" : [ 0.0, 0.0, 0.0, 0.0 ],
						"openinpresentation" : 0,
						"default_fontsize" : 12.0,
						"default_fontface" : 0,
						"default_fontname" : "Arial",
						"gridonopen" : 0,
						"gridsize" : [ 15.0, 15.0 ],
						"gridsnaponopen" : 0,
						"toolbarvisible" : 1,
						"boxanimatetime" : 200,
						"imprint" : 0,
						"boxes" : [ 							{
								"box" : 								{
									"maxclass" : "newobj",
									"text" : "loadbang",
									"id" : "obj-1",
									"fontname" : "Arial",
									"numinlets" : 1,
									"numoutlets" : 1,
									"patching_rect" : [ 355.0, 252.0, 48.0, 17.0 ],
									"fontsize" : 9.0,
									"outlettype" : [ "bang" ]
								}

							}
, 							{
								"box" : 								{
									"maxclass" : "button",
									"id" : "obj-2",
									"numinlets" : 1,
									"numoutlets" : 1,
									"patching_rect" : [ 77.0, 86.0, 15.0, 15.0 ],
									"outlettype" : [ "bang" ]
								}

							}
, 							{
								"box" : 								{
									"maxclass" : "newobj",
									"text" : "loadbang",
									"id" : "obj-3",
									"fontname" : "Arial",
									"numinlets" : 1,
									"numoutlets" : 1,
									"patching_rect" : [ 255.0, 75.0, 48.0, 17.0 ],
									"fontsize" : 9.0,
									"outlettype" : [ "bang" ]
								}

							}
, 							{
								"box" : 								{
									"maxclass" : "outlet",
									"id" : "obj-4",
									"numinlets" : 1,
									"numoutlets" : 0,
									"patching_rect" : [ 254.0, 300.0, 15.0, 15.0 ],
									"comment" : ""
								}

							}
, 							{
								"box" : 								{
									"maxclass" : "newobj",
									"text" : "onebang",
									"id" : "obj-5",
									"fontname" : "Arial",
									"numinlets" : 2,
									"numoutlets" : 2,
									"patching_rect" : [ 286.0, 225.0, 45.0, 17.0 ],
									"fontsize" : 9.0,
									"outlettype" : [ "bang", "bang" ]
								}

							}
, 							{
								"box" : 								{
									"maxclass" : "toggle",
									"id" : "obj-6",
									"numinlets" : 1,
									"numoutlets" : 1,
									"patching_rect" : [ 254.0, 272.0, 15.0, 15.0 ],
									"outlettype" : [ "int" ]
								}

							}
, 							{
								"box" : 								{
									"maxclass" : "newobj",
									"text" : "onebang",
									"id" : "obj-7",
									"fontname" : "Arial",
									"numinlets" : 2,
									"numoutlets" : 2,
									"patching_rect" : [ 195.0, 228.0, 45.0, 17.0 ],
									"fontsize" : 9.0,
									"outlettype" : [ "bang", "bang" ]
								}

							}
, 							{
								"box" : 								{
									"maxclass" : "newobj",
									"text" : "if $i1 > $i2 then bang else out2 bang",
									"id" : "obj-8",
									"fontname" : "Arial",
									"numinlets" : 2,
									"numoutlets" : 2,
									"patching_rect" : [ 164.0, 148.0, 173.0, 17.0 ],
									"fontsize" : 9.0,
									"outlettype" : [ "", "" ]
								}

							}
, 							{
								"box" : 								{
									"maxclass" : "inlet",
									"id" : "obj-9",
									"numinlets" : 0,
									"numoutlets" : 1,
									"patching_rect" : [ 327.0, 93.0, 15.0, 15.0 ],
									"outlettype" : [ "" ],
									"comment" : ""
								}

							}
, 							{
								"box" : 								{
									"maxclass" : "comment",
									"text" : "slider",
									"id" : "obj-10",
									"fontname" : "Arial",
									"numinlets" : 1,
									"numoutlets" : 0,
									"patching_rect" : [ 346.0, 94.0, 36.0, 17.0 ],
									"fontsize" : 9.0
								}

							}
, 							{
								"box" : 								{
									"maxclass" : "inlet",
									"id" : "obj-11",
									"numinlets" : 0,
									"numoutlets" : 1,
									"patching_rect" : [ 164.0, 92.0, 15.0, 15.0 ],
									"outlettype" : [ "int" ],
									"comment" : ""
								}

							}
, 							{
								"box" : 								{
									"maxclass" : "comment",
									"text" : "amplitude",
									"id" : "obj-12",
									"fontname" : "Arial",
									"numinlets" : 1,
									"numoutlets" : 0,
									"patching_rect" : [ 183.0, 93.0, 53.0, 17.0 ],
									"fontsize" : 9.0
								}

							}
 ],
						"lines" : [ 							{
								"patchline" : 								{
									"source" : [ "obj-9", 0 ],
									"destination" : [ "obj-8", 1 ],
									"hidden" : 0,
									"midpoints" : [  ]
								}

							}
, 							{
								"patchline" : 								{
									"source" : [ "obj-8", 0 ],
									"destination" : [ "obj-5", 1 ],
									"hidden" : 0,
									"midpoints" : [  ]
								}

							}
, 							{
								"patchline" : 								{
									"source" : [ "obj-3", 0 ],
									"destination" : [ "obj-5", 1 ],
									"hidden" : 0,
									"midpoints" : [  ]
								}

							}
, 							{
								"patchline" : 								{
									"source" : [ "obj-8", 1 ],
									"destination" : [ "obj-5", 0 ],
									"hidden" : 0,
									"midpoints" : [  ]
								}

							}
, 							{
								"patchline" : 								{
									"source" : [ "obj-6", 0 ],
									"destination" : [ "obj-4", 0 ],
									"hidden" : 0,
									"midpoints" : [  ]
								}

							}
, 							{
								"patchline" : 								{
									"source" : [ "obj-1", 0 ],
									"destination" : [ "obj-6", 0 ],
									"hidden" : 0,
									"midpoints" : [  ]
								}

							}
, 							{
								"patchline" : 								{
									"source" : [ "obj-7", 0 ],
									"destination" : [ "obj-6", 0 ],
									"hidden" : 0,
									"midpoints" : [  ]
								}

							}
, 							{
								"patchline" : 								{
									"source" : [ "obj-5", 0 ],
									"destination" : [ "obj-6", 0 ],
									"hidden" : 0,
									"midpoints" : [  ]
								}

							}
, 							{
								"patchline" : 								{
									"source" : [ "obj-2", 0 ],
									"destination" : [ "obj-7", 1 ],
									"hidden" : 0,
									"midpoints" : [  ]
								}

							}
, 							{
								"patchline" : 								{
									"source" : [ "obj-8", 1 ],
									"destination" : [ "obj-7", 1 ],
									"hidden" : 0,
									"midpoints" : [  ]
								}

							}
, 							{
								"patchline" : 								{
									"source" : [ "obj-3", 0 ],
									"destination" : [ "obj-7", 1 ],
									"hidden" : 0,
									"midpoints" : [  ]
								}

							}
, 							{
								"patchline" : 								{
									"source" : [ "obj-8", 0 ],
									"destination" : [ "obj-7", 0 ],
									"hidden" : 0,
									"midpoints" : [  ]
								}

							}
, 							{
								"patchline" : 								{
									"source" : [ "obj-11", 0 ],
									"destination" : [ "obj-8", 0 ],
									"hidden" : 0,
									"midpoints" : [  ]
								}

							}
 ]
					}
,
					"saved_object_attributes" : 					{
						"default_fontname" : "Arial",
						"default_fontsize" : 12.0,
						"fontname" : "Arial",
						"globalpatchername" : "",
						"fontface" : 0,
						"fontsize" : 12.0,
						"default_fontface" : 0
					}

				}

			}
, 			{
				"box" : 				{
					"maxclass" : "newobj",
					"text" : "+ 100",
					"id" : "obj-23",
					"fontname" : "Arial",
					"numinlets" : 2,
					"numoutlets" : 1,
					"patching_rect" : [ 133.0, 242.0, 37.0, 17.0 ],
					"fontsize" : 9.0,
					"outlettype" : [ "int" ]
				}

			}
, 			{
				"box" : 				{
					"maxclass" : "number",
					"id" : "obj-24",
					"fontname" : "Arial",
					"bgcolor" : [ 0.866667, 0.866667, 0.866667, 1.0 ],
					"numinlets" : 1,
					"triscale" : 0.9,
					"numoutlets" : 2,
					"patching_rect" : [ 134.0, 267.0, 35.0, 17.0 ],
					"fontsize" : 9.0,
					"htextcolor" : [ 0.870588, 0.870588, 0.870588, 1.0 ],
					"outlettype" : [ "int", "bang" ]
				}

			}
, 			{
				"box" : 				{
					"maxclass" : "number",
					"id" : "obj-25",
					"fontname" : "Arial",
					"bgcolor" : [ 0.866667, 0.866667, 0.866667, 1.0 ],
					"numinlets" : 1,
					"triscale" : 0.9,
					"numoutlets" : 2,
					"patching_rect" : [ 2.0, 414.0, 35.0, 17.0 ],
					"fontsize" : 9.0,
					"htextcolor" : [ 0.870588, 0.870588, 0.870588, 1.0 ],
					"outlettype" : [ "int", "bang" ]
				}

			}
, 			{
				"box" : 				{
					"maxclass" : "newobj",
					"text" : "patcher findle",
					"id" : "obj-26",
					"fontname" : "Arial",
					"numinlets" : 1,
					"numoutlets" : 1,
					"patching_rect" : [ 1.0, 391.0, 72.0, 17.0 ],
					"fontsize" : 9.0,
					"outlettype" : [ "float" ],
					"patcher" : 					{
						"fileversion" : 1,
						"rect" : [ 649.0, 150.0, 814.0, 551.0 ],
						"bglocked" : 0,
						"defrect" : [ 649.0, 150.0, 814.0, 551.0 ],
						"openrect" : [ 0.0, 0.0, 0.0, 0.0 ],
						"openinpresentation" : 0,
						"default_fontsize" : 12.0,
						"default_fontface" : 0,
						"default_fontname" : "Arial",
						"gridonopen" : 0,
						"gridsize" : [ 15.0, 15.0 ],
						"gridsnaponopen" : 0,
						"toolbarvisible" : 1,
						"boxanimatetime" : 200,
						"imprint" : 0,
						"boxes" : [ 							{
								"box" : 								{
									"maxclass" : "comment",
									"text" : "pitch",
									"id" : "obj-1",
									"fontname" : "Arial",
									"numinlets" : 1,
									"numoutlets" : 0,
									"patching_rect" : [ 317.0, 426.0, 71.0, 17.0 ],
									"fontsize" : 9.0
								}

							}
, 							{
								"box" : 								{
									"maxclass" : "outlet",
									"id" : "obj-2",
									"numinlets" : 1,
									"numoutlets" : 0,
									"patching_rect" : [ 300.0, 426.0, 15.0, 15.0 ],
									"comment" : ""
								}

							}
, 							{
								"box" : 								{
									"maxclass" : "inlet",
									"id" : "obj-3",
									"numinlets" : 0,
									"numoutlets" : 1,
									"patching_rect" : [ 300.0, 83.0, 15.0, 15.0 ],
									"outlettype" : [ "signal" ],
									"comment" : ""
								}

							}
, 							{
								"box" : 								{
									"maxclass" : "flonum",
									"id" : "obj-4",
									"fontname" : "Arial",
									"bgcolor" : [ 0.866667, 0.866667, 0.866667, 1.0 ],
									"numinlets" : 1,
									"triscale" : 0.9,
									"numoutlets" : 2,
									"patching_rect" : [ 299.0, 327.0, 103.0, 27.0 ],
									"fontsize" : 18.0,
									"htextcolor" : [ 0.870588, 0.870588, 0.870588, 1.0 ],
									"outlettype" : [ "float", "bang" ]
								}

							}
, 							{
								"box" : 								{
									"maxclass" : "newobj",
									"text" : "mtof",
									"id" : "obj-5",
									"fontname" : "Arial",
									"numinlets" : 1,
									"numoutlets" : 1,
									"patching_rect" : [ 300.0, 220.0, 30.0, 17.0 ],
									"fontsize" : 9.0,
									"outlettype" : [ "" ]
								}

							}
, 							{
								"box" : 								{
									"maxclass" : "comment",
									"id" : "obj-6",
									"fontname" : "Arial",
									"numinlets" : 1,
									"numoutlets" : 0,
									"patching_rect" : [ 334.0, 126.0, 95.0, 17.0 ],
									"fontsize" : 9.0
								}

							}
, 							{
								"box" : 								{
									"maxclass" : "newobj",
									"text" : "fiddle~ 1024 1 20 3",
									"id" : "obj-7",
									"fontname" : "Arial",
									"numinlets" : 1,
									"numoutlets" : 1,
									"patching_rect" : [ 300.0, 164.0, 262.0, 17.0 ],
									"fontsize" : 9.0,
									"color" : [ 1.0, 0.890196, 0.090196, 1.0 ],
									"outlettype" : [ "" ]
								}

							}
 ],
						"lines" : [ 							{
								"patchline" : 								{
									"source" : [ "obj-4", 0 ],
									"destination" : [ "obj-2", 0 ],
									"hidden" : 0,
									"midpoints" : [  ]
								}

							}
, 							{
								"patchline" : 								{
									"source" : [ "obj-7", 0 ],
									"destination" : [ "obj-5", 0 ],
									"hidden" : 0,
									"midpoints" : [ 309.5, 186.0, 309.5, 186.0 ]
								}

							}
, 							{
								"patchline" : 								{
									"source" : [ "obj-3", 0 ],
									"destination" : [ "obj-7", 0 ],
									"hidden" : 0,
									"midpoints" : [  ]
								}

							}
, 							{
								"patchline" : 								{
									"source" : [ "obj-5", 0 ],
									"destination" : [ "obj-4", 0 ],
									"hidden" : 0,
									"midpoints" : [  ]
								}

							}
 ]
					}
,
					"saved_object_attributes" : 					{
						"default_fontname" : "Arial",
						"default_fontsize" : 12.0,
						"fontname" : "Arial",
						"globalpatchername" : "",
						"fontface" : 0,
						"fontsize" : 12.0,
						"default_fontface" : 0
					}

				}

			}
, 			{
				"box" : 				{
					"maxclass" : "levelmeter~",
					"markers" : [ 12, 6, 0, -6, -12, -24, -36, -48 ],
					"id" : "obj-27",
					"bgcolor" : [ 0.941176, 0.941176, 0.941176, 1.0 ],
					"tepidcolor" : [ 0.862745, 0.784314, 0.392157, 1.0 ],
					"fgcolor" : [ 0.784314, 0.784314, 0.784314, 1.0 ],
					"numinlets" : 1,
					"hotcolor" : [ 0.862745, 0.392157, 0.392157, 1.0 ],
					"numoutlets" : 1,
					"patching_rect" : [ 133.0, 135.0, 154.0, 77.0 ],
					"coolcolor" : [ 0.705882, 0.823529, 0.392157, 1.0 ],
					"rounded" : 0,
					"outlettype" : [ "int" ],
					"warmcolor" : [ 0.862745, 0.588235, 0.313726, 1.0 ]
				}

			}
, 			{
				"box" : 				{
					"maxclass" : "meter~",
					"id" : "obj-28",
					"bgcolor" : [ 0.403922, 0.403922, 0.403922, 1.0 ],
					"tepidcolor" : [ 0.6, 0.729412, 0.0, 1.0 ],
					"numinlets" : 1,
					"interval" : 100,
					"numoutlets" : 1,
					"patching_rect" : [ 108.0, 135.0, 18.0, 77.0 ],
					"coldcolor" : [ 0.0, 0.658824, 0.0, 1.0 ],
					"outlettype" : [ "float" ],
					"warmcolor" : [ 0.85098, 0.85098, 0.0, 1.0 ]
				}

			}
, 			{
				"box" : 				{
					"maxclass" : "comment",
					"text" : "pitch",
					"id" : "obj-29",
					"fontname" : "Arial",
					"numinlets" : 1,
					"numoutlets" : 0,
					"patching_rect" : [ 105.0, 468.0, 100.0, 17.0 ],
					"fontsize" : 9.0
				}

			}
, 			{
				"box" : 				{
					"maxclass" : "comment",
					"text" : "amplitude",
					"id" : "obj-30",
					"fontname" : "Arial",
					"numinlets" : 1,
					"numoutlets" : 0,
					"patching_rect" : [ 919.0, 474.0, 53.0, 17.0 ],
					"fontsize" : 9.0
				}

			}
, 			{
				"box" : 				{
					"maxclass" : "number",
					"id" : "obj-31",
					"fontname" : "Arial",
					"bgcolor" : [ 0.866667, 0.866667, 0.866667, 1.0 ],
					"numinlets" : 1,
					"triscale" : 0.9,
					"numoutlets" : 2,
					"patching_rect" : [ 967.0, 472.0, 35.0, 17.0 ],
					"fontsize" : 9.0,
					"htextcolor" : [ 0.870588, 0.870588, 0.870588, 1.0 ],
					"outlettype" : [ "int", "bang" ]
				}

			}
, 			{
				"box" : 				{
					"maxclass" : "number",
					"id" : "obj-32",
					"fontname" : "Arial",
					"bgcolor" : [ 0.866667, 0.866667, 0.866667, 1.0 ],
					"numinlets" : 1,
					"triscale" : 0.9,
					"numoutlets" : 2,
					"patching_rect" : [ 744.0, 472.0, 35.0, 17.0 ],
					"fontsize" : 9.0,
					"htextcolor" : [ 0.870588, 0.870588, 0.870588, 1.0 ],
					"outlettype" : [ "int", "bang" ]
				}

			}
, 			{
				"box" : 				{
					"maxclass" : "newobj",
					"text" : "if $i1 == 1 then set $i2 else set $i3",
					"id" : "obj-33",
					"fontname" : "Arial",
					"numinlets" : 3,
					"numoutlets" : 1,
					"patching_rect" : [ 608.0, 443.0, 172.0, 17.0 ],
					"fontsize" : 9.0,
					"outlettype" : [ "" ]
				}

			}
, 			{
				"box" : 				{
					"maxclass" : "newobj",
					"text" : "loadbang",
					"id" : "obj-34",
					"fontname" : "Arial",
					"numinlets" : 1,
					"numoutlets" : 1,
					"patching_rect" : [ 919.0, 146.0, 48.0, 17.0 ],
					"fontsize" : 9.0,
					"outlettype" : [ "bang" ]
				}

			}
, 			{
				"box" : 				{
					"maxclass" : "toggle",
					"id" : "obj-35",
					"numinlets" : 1,
					"numoutlets" : 1,
					"patching_rect" : [ 919.0, 169.0, 15.0, 15.0 ],
					"outlettype" : [ "int" ]
				}

			}
, 			{
				"box" : 				{
					"maxclass" : "newobj",
					"text" : "metro 1",
					"id" : "obj-36",
					"fontname" : "Arial",
					"numinlets" : 2,
					"numoutlets" : 1,
					"patching_rect" : [ 919.0, 191.0, 46.0, 17.0 ],
					"fontsize" : 9.0,
					"outlettype" : [ "bang" ]
				}

			}
, 			{
				"box" : 				{
					"maxclass" : "newobj",
					"text" : "if $i1 == 1 then set $i2 else set $i3",
					"id" : "obj-37",
					"fontname" : "Arial",
					"numinlets" : 3,
					"numoutlets" : 1,
					"patching_rect" : [ 829.0, 443.0, 172.0, 17.0 ],
					"fontsize" : 9.0,
					"outlettype" : [ "" ]
				}

			}
, 			{
				"box" : 				{
					"maxclass" : "number",
					"id" : "obj-38",
					"fontname" : "Arial",
					"bgcolor" : [ 0.866667, 0.866667, 0.866667, 1.0 ],
					"numinlets" : 1,
					"triscale" : 0.9,
					"numoutlets" : 2,
					"patching_rect" : [ 785.0, 247.0, 35.0, 17.0 ],
					"fontsize" : 9.0,
					"htextcolor" : [ 0.870588, 0.870588, 0.870588, 1.0 ],
					"outlettype" : [ "int", "bang" ]
				}

			}
, 			{
				"box" : 				{
					"maxclass" : "number",
					"id" : "obj-39",
					"fontname" : "Arial",
					"bgcolor" : [ 0.866667, 0.866667, 0.866667, 1.0 ],
					"numinlets" : 1,
					"triscale" : 0.9,
					"numoutlets" : 2,
					"patching_rect" : [ 957.0, 314.0, 35.0, 17.0 ],
					"fontsize" : 9.0,
					"htextcolor" : [ 0.870588, 0.870588, 0.870588, 1.0 ],
					"outlettype" : [ "int", "bang" ]
				}

			}
, 			{
				"box" : 				{
					"maxclass" : "slider",
					"id" : "obj-40",
					"numinlets" : 1,
					"numoutlets" : 1,
					"patching_rect" : [ 811.0, 313.0, 144.0, 18.0 ],
					"outlettype" : [ "" ],
					"orientation" : 1
				}

			}
, 			{
				"box" : 				{
					"maxclass" : "toggle",
					"id" : "obj-41",
					"numinlets" : 1,
					"numoutlets" : 1,
					"patching_rect" : [ 667.0, 315.0, 15.0, 15.0 ],
					"outlettype" : [ "int" ]
				}

			}
, 			{
				"box" : 				{
					"maxclass" : "newobj",
					"text" : "patcher validate volume",
					"id" : "obj-42",
					"fontname" : "Arial",
					"numinlets" : 2,
					"numoutlets" : 1,
					"patching_rect" : [ 687.0, 314.0, 118.0, 17.0 ],
					"fontsize" : 9.0,
					"outlettype" : [ "int" ],
					"patcher" : 					{
						"fileversion" : 1,
						"rect" : [ 608.0, 85.0, 600.0, 426.0 ],
						"bglocked" : 0,
						"defrect" : [ 608.0, 85.0, 600.0, 426.0 ],
						"openrect" : [ 0.0, 0.0, 0.0, 0.0 ],
						"openinpresentation" : 0,
						"default_fontsize" : 12.0,
						"default_fontface" : 0,
						"default_fontname" : "Arial",
						"gridonopen" : 0,
						"gridsize" : [ 15.0, 15.0 ],
						"gridsnaponopen" : 0,
						"toolbarvisible" : 1,
						"boxanimatetime" : 200,
						"imprint" : 0,
						"boxes" : [ 							{
								"box" : 								{
									"maxclass" : "newobj",
									"text" : "loadbang",
									"id" : "obj-1",
									"fontname" : "Arial",
									"numinlets" : 1,
									"numoutlets" : 1,
									"patching_rect" : [ 350.0, 252.0, 48.0, 17.0 ],
									"fontsize" : 9.0,
									"outlettype" : [ "bang" ]
								}

							}
, 							{
								"box" : 								{
									"maxclass" : "button",
									"id" : "obj-2",
									"numinlets" : 1,
									"numoutlets" : 1,
									"patching_rect" : [ 79.0, 88.0, 15.0, 15.0 ],
									"outlettype" : [ "bang" ]
								}

							}
, 							{
								"box" : 								{
									"maxclass" : "newobj",
									"text" : "loadbang",
									"id" : "obj-3",
									"fontname" : "Arial",
									"numinlets" : 1,
									"numoutlets" : 1,
									"patching_rect" : [ 251.0, 70.0, 48.0, 17.0 ],
									"fontsize" : 9.0,
									"outlettype" : [ "bang" ]
								}

							}
, 							{
								"box" : 								{
									"maxclass" : "outlet",
									"id" : "obj-4",
									"numinlets" : 1,
									"numoutlets" : 0,
									"patching_rect" : [ 254.0, 300.0, 15.0, 15.0 ],
									"comment" : ""
								}

							}
, 							{
								"box" : 								{
									"maxclass" : "newobj",
									"text" : "onebang",
									"id" : "obj-5",
									"fontname" : "Arial",
									"numinlets" : 2,
									"numoutlets" : 2,
									"patching_rect" : [ 287.0, 228.0, 45.0, 17.0 ],
									"fontsize" : 9.0,
									"outlettype" : [ "bang", "bang" ]
								}

							}
, 							{
								"box" : 								{
									"maxclass" : "toggle",
									"id" : "obj-6",
									"numinlets" : 1,
									"numoutlets" : 1,
									"patching_rect" : [ 254.0, 272.0, 15.0, 15.0 ],
									"outlettype" : [ "int" ]
								}

							}
, 							{
								"box" : 								{
									"maxclass" : "newobj",
									"text" : "onebang",
									"id" : "obj-7",
									"fontname" : "Arial",
									"numinlets" : 2,
									"numoutlets" : 2,
									"patching_rect" : [ 195.0, 228.0, 45.0, 17.0 ],
									"fontsize" : 9.0,
									"outlettype" : [ "bang", "bang" ]
								}

							}
, 							{
								"box" : 								{
									"maxclass" : "newobj",
									"text" : "if $i1 > $i2 then bang else out2 bang",
									"id" : "obj-8",
									"fontname" : "Arial",
									"numinlets" : 2,
									"numoutlets" : 2,
									"patching_rect" : [ 164.0, 148.0, 173.0, 17.0 ],
									"fontsize" : 9.0,
									"outlettype" : [ "", "" ]
								}

							}
, 							{
								"box" : 								{
									"maxclass" : "inlet",
									"id" : "obj-9",
									"numinlets" : 0,
									"numoutlets" : 1,
									"patching_rect" : [ 327.0, 93.0, 15.0, 15.0 ],
									"outlettype" : [ "" ],
									"comment" : ""
								}

							}
, 							{
								"box" : 								{
									"maxclass" : "comment",
									"text" : "slider",
									"id" : "obj-10",
									"fontname" : "Arial",
									"numinlets" : 1,
									"numoutlets" : 0,
									"patching_rect" : [ 346.0, 94.0, 36.0, 17.0 ],
									"fontsize" : 9.0
								}

							}
, 							{
								"box" : 								{
									"maxclass" : "inlet",
									"id" : "obj-11",
									"numinlets" : 0,
									"numoutlets" : 1,
									"patching_rect" : [ 164.0, 92.0, 15.0, 15.0 ],
									"outlettype" : [ "int" ],
									"comment" : ""
								}

							}
, 							{
								"box" : 								{
									"maxclass" : "comment",
									"text" : "amplitude",
									"id" : "obj-12",
									"fontname" : "Arial",
									"numinlets" : 1,
									"numoutlets" : 0,
									"patching_rect" : [ 183.0, 93.0, 53.0, 17.0 ],
									"fontsize" : 9.0
								}

							}
 ],
						"lines" : [ 							{
								"patchline" : 								{
									"source" : [ "obj-9", 0 ],
									"destination" : [ "obj-8", 1 ],
									"hidden" : 0,
									"midpoints" : [  ]
								}

							}
, 							{
								"patchline" : 								{
									"source" : [ "obj-8", 0 ],
									"destination" : [ "obj-5", 1 ],
									"hidden" : 0,
									"midpoints" : [  ]
								}

							}
, 							{
								"patchline" : 								{
									"source" : [ "obj-3", 0 ],
									"destination" : [ "obj-5", 1 ],
									"hidden" : 0,
									"midpoints" : [  ]
								}

							}
, 							{
								"patchline" : 								{
									"source" : [ "obj-8", 1 ],
									"destination" : [ "obj-5", 0 ],
									"hidden" : 0,
									"midpoints" : [  ]
								}

							}
, 							{
								"patchline" : 								{
									"source" : [ "obj-6", 0 ],
									"destination" : [ "obj-4", 0 ],
									"hidden" : 0,
									"midpoints" : [  ]
								}

							}
, 							{
								"patchline" : 								{
									"source" : [ "obj-1", 0 ],
									"destination" : [ "obj-6", 0 ],
									"hidden" : 0,
									"midpoints" : [  ]
								}

							}
, 							{
								"patchline" : 								{
									"source" : [ "obj-7", 0 ],
									"destination" : [ "obj-6", 0 ],
									"hidden" : 0,
									"midpoints" : [  ]
								}

							}
, 							{
								"patchline" : 								{
									"source" : [ "obj-5", 0 ],
									"destination" : [ "obj-6", 0 ],
									"hidden" : 0,
									"midpoints" : [  ]
								}

							}
, 							{
								"patchline" : 								{
									"source" : [ "obj-2", 0 ],
									"destination" : [ "obj-7", 1 ],
									"hidden" : 0,
									"midpoints" : [  ]
								}

							}
, 							{
								"patchline" : 								{
									"source" : [ "obj-8", 1 ],
									"destination" : [ "obj-7", 1 ],
									"hidden" : 0,
									"midpoints" : [  ]
								}

							}
, 							{
								"patchline" : 								{
									"source" : [ "obj-3", 0 ],
									"destination" : [ "obj-7", 1 ],
									"hidden" : 0,
									"midpoints" : [  ]
								}

							}
, 							{
								"patchline" : 								{
									"source" : [ "obj-8", 0 ],
									"destination" : [ "obj-7", 0 ],
									"hidden" : 0,
									"midpoints" : [  ]
								}

							}
, 							{
								"patchline" : 								{
									"source" : [ "obj-11", 0 ],
									"destination" : [ "obj-8", 0 ],
									"hidden" : 0,
									"midpoints" : [  ]
								}

							}
 ]
					}
,
					"saved_object_attributes" : 					{
						"default_fontname" : "Arial",
						"default_fontsize" : 12.0,
						"fontname" : "Arial",
						"globalpatchername" : "",
						"fontface" : 0,
						"fontsize" : 12.0,
						"default_fontface" : 0
					}

				}

			}
, 			{
				"box" : 				{
					"maxclass" : "newobj",
					"text" : "+ 100",
					"id" : "obj-43",
					"fontname" : "Arial",
					"numinlets" : 2,
					"numoutlets" : 1,
					"patching_rect" : [ 741.0, 247.0, 37.0, 17.0 ],
					"fontsize" : 9.0,
					"outlettype" : [ "int" ]
				}

			}
, 			{
				"box" : 				{
					"maxclass" : "number",
					"id" : "obj-44",
					"fontname" : "Arial",
					"bgcolor" : [ 0.866667, 0.866667, 0.866667, 1.0 ],
					"numinlets" : 1,
					"triscale" : 0.9,
					"numoutlets" : 2,
					"patching_rect" : [ 742.0, 272.0, 35.0, 17.0 ],
					"fontsize" : 9.0,
					"htextcolor" : [ 0.870588, 0.870588, 0.870588, 1.0 ],
					"outlettype" : [ "int", "bang" ]
				}

			}
, 			{
				"box" : 				{
					"maxclass" : "number",
					"id" : "obj-45",
					"fontname" : "Arial",
					"bgcolor" : [ 0.866667, 0.866667, 0.866667, 1.0 ],
					"numinlets" : 1,
					"triscale" : 0.9,
					"numoutlets" : 2,
					"patching_rect" : [ 610.0, 419.0, 35.0, 17.0 ],
					"fontsize" : 9.0,
					"htextcolor" : [ 0.870588, 0.870588, 0.870588, 1.0 ],
					"outlettype" : [ "int", "bang" ]
				}

			}
, 			{
				"box" : 				{
					"maxclass" : "newobj",
					"text" : "patcher findle",
					"id" : "obj-46",
					"fontname" : "Arial",
					"numinlets" : 1,
					"numoutlets" : 1,
					"patching_rect" : [ 609.0, 396.0, 72.0, 17.0 ],
					"fontsize" : 9.0,
					"outlettype" : [ "float" ],
					"patcher" : 					{
						"fileversion" : 1,
						"rect" : [ 649.0, 150.0, 814.0, 551.0 ],
						"bglocked" : 0,
						"defrect" : [ 649.0, 150.0, 814.0, 551.0 ],
						"openrect" : [ 0.0, 0.0, 0.0, 0.0 ],
						"openinpresentation" : 0,
						"default_fontsize" : 12.0,
						"default_fontface" : 0,
						"default_fontname" : "Arial",
						"gridonopen" : 0,
						"gridsize" : [ 15.0, 15.0 ],
						"gridsnaponopen" : 0,
						"toolbarvisible" : 1,
						"boxanimatetime" : 200,
						"imprint" : 0,
						"boxes" : [ 							{
								"box" : 								{
									"maxclass" : "comment",
									"text" : "pitch",
									"id" : "obj-1",
									"fontname" : "Arial",
									"numinlets" : 1,
									"numoutlets" : 0,
									"patching_rect" : [ 317.0, 426.0, 71.0, 17.0 ],
									"fontsize" : 9.0
								}

							}
, 							{
								"box" : 								{
									"maxclass" : "outlet",
									"id" : "obj-2",
									"numinlets" : 1,
									"numoutlets" : 0,
									"patching_rect" : [ 300.0, 426.0, 15.0, 15.0 ],
									"comment" : ""
								}

							}
, 							{
								"box" : 								{
									"maxclass" : "inlet",
									"id" : "obj-3",
									"numinlets" : 0,
									"numoutlets" : 1,
									"patching_rect" : [ 300.0, 83.0, 15.0, 15.0 ],
									"outlettype" : [ "signal" ],
									"comment" : ""
								}

							}
, 							{
								"box" : 								{
									"maxclass" : "flonum",
									"id" : "obj-4",
									"fontname" : "Arial",
									"bgcolor" : [ 0.866667, 0.866667, 0.866667, 1.0 ],
									"numinlets" : 1,
									"triscale" : 0.9,
									"numoutlets" : 2,
									"patching_rect" : [ 299.0, 327.0, 103.0, 27.0 ],
									"fontsize" : 18.0,
									"htextcolor" : [ 0.870588, 0.870588, 0.870588, 1.0 ],
									"outlettype" : [ "float", "bang" ]
								}

							}
, 							{
								"box" : 								{
									"maxclass" : "newobj",
									"text" : "mtof",
									"id" : "obj-5",
									"fontname" : "Arial",
									"numinlets" : 1,
									"numoutlets" : 1,
									"patching_rect" : [ 300.0, 220.0, 30.0, 17.0 ],
									"fontsize" : 9.0,
									"outlettype" : [ "" ]
								}

							}
, 							{
								"box" : 								{
									"maxclass" : "comment",
									"id" : "obj-6",
									"fontname" : "Arial",
									"numinlets" : 1,
									"numoutlets" : 0,
									"patching_rect" : [ 334.0, 126.0, 95.0, 17.0 ],
									"fontsize" : 9.0
								}

							}
, 							{
								"box" : 								{
									"maxclass" : "newobj",
									"text" : "fiddle~ 1024 1 20 3",
									"id" : "obj-7",
									"fontname" : "Arial",
									"numinlets" : 1,
									"numoutlets" : 1,
									"patching_rect" : [ 300.0, 164.0, 262.0, 17.0 ],
									"fontsize" : 9.0,
									"color" : [ 1.0, 0.890196, 0.090196, 1.0 ],
									"outlettype" : [ "" ]
								}

							}
 ],
						"lines" : [ 							{
								"patchline" : 								{
									"source" : [ "obj-4", 0 ],
									"destination" : [ "obj-2", 0 ],
									"hidden" : 0,
									"midpoints" : [  ]
								}

							}
, 							{
								"patchline" : 								{
									"source" : [ "obj-7", 0 ],
									"destination" : [ "obj-5", 0 ],
									"hidden" : 0,
									"midpoints" : [ 309.5, 186.0, 309.5, 186.0 ]
								}

							}
, 							{
								"patchline" : 								{
									"source" : [ "obj-3", 0 ],
									"destination" : [ "obj-7", 0 ],
									"hidden" : 0,
									"midpoints" : [  ]
								}

							}
, 							{
								"patchline" : 								{
									"source" : [ "obj-5", 0 ],
									"destination" : [ "obj-4", 0 ],
									"hidden" : 0,
									"midpoints" : [  ]
								}

							}
 ]
					}
,
					"saved_object_attributes" : 					{
						"default_fontname" : "Arial",
						"default_fontsize" : 12.0,
						"fontname" : "Arial",
						"globalpatchername" : "",
						"fontface" : 0,
						"fontsize" : 12.0,
						"default_fontface" : 0
					}

				}

			}
, 			{
				"box" : 				{
					"maxclass" : "levelmeter~",
					"markers" : [ 12, 6, 0, -6, -12, -24, -36, -48 ],
					"id" : "obj-47",
					"bgcolor" : [ 0.941176, 0.941176, 0.941176, 1.0 ],
					"tepidcolor" : [ 0.862745, 0.784314, 0.392157, 1.0 ],
					"fgcolor" : [ 0.784314, 0.784314, 0.784314, 1.0 ],
					"numinlets" : 1,
					"hotcolor" : [ 0.862745, 0.392157, 0.392157, 1.0 ],
					"numoutlets" : 1,
					"patching_rect" : [ 741.0, 140.0, 154.0, 77.0 ],
					"coolcolor" : [ 0.705882, 0.823529, 0.392157, 1.0 ],
					"rounded" : 0,
					"outlettype" : [ "int" ],
					"warmcolor" : [ 0.862745, 0.588235, 0.313726, 1.0 ]
				}

			}
, 			{
				"box" : 				{
					"maxclass" : "newobj",
					"text" : "adc~",
					"id" : "obj-48",
					"fontname" : "Arial",
					"numinlets" : 1,
					"numoutlets" : 2,
					"patching_rect" : [ 395.0, 83.0, 31.0, 17.0 ],
					"fontsize" : 9.0,
					"outlettype" : [ "signal", "signal" ]
				}

			}
, 			{
				"box" : 				{
					"maxclass" : "meter~",
					"id" : "obj-49",
					"bgcolor" : [ 0.403922, 0.403922, 0.403922, 1.0 ],
					"tepidcolor" : [ 0.6, 0.729412, 0.0, 1.0 ],
					"numinlets" : 1,
					"interval" : 100,
					"numoutlets" : 1,
					"patching_rect" : [ 716.0, 140.0, 18.0, 77.0 ],
					"coldcolor" : [ 0.0, 0.658824, 0.0, 1.0 ],
					"outlettype" : [ "float" ],
					"warmcolor" : [ 0.85098, 0.85098, 0.0, 1.0 ]
				}

			}
, 			{
				"box" : 				{
					"maxclass" : "comment",
					"text" : "pitch",
					"id" : "obj-50",
					"fontname" : "Arial",
					"numinlets" : 1,
					"numoutlets" : 0,
					"patching_rect" : [ 713.0, 473.0, 100.0, 17.0 ],
					"fontsize" : 9.0
				}

			}
, 			{
				"box" : 				{
					"maxclass" : "newobj",
					"text" : "loadbang",
					"id" : "obj-51",
					"fontname" : "Arial",
					"numinlets" : 1,
					"numoutlets" : 1,
					"patching_rect" : [ 311.0, 141.0, 48.0, 17.0 ],
					"fontsize" : 9.0,
					"outlettype" : [ "bang" ]
				}

			}
, 			{
				"box" : 				{
					"maxclass" : "comment",
					"text" : "SEND!",
					"id" : "obj-52",
					"fontname" : "Arial",
					"numinlets" : 1,
					"numoutlets" : 0,
					"patching_rect" : [ 468.0, 493.0, 36.0, 17.0 ],
					"fontsize" : 9.0
				}

			}
, 			{
				"box" : 				{
					"maxclass" : "comment",
					"text" : "defaut noise gate",
					"id" : "obj-53",
					"fontname" : "Arial",
					"numinlets" : 1,
					"numoutlets" : 0,
					"patching_rect" : [ 524.0, 84.0, 100.0, 17.0 ],
					"fontsize" : 9.0
				}

			}
 ],
		"lines" : [ 			{
				"patchline" : 				{
					"source" : [ "obj-38", 0 ],
					"destination" : [ "obj-37", 2 ],
					"hidden" : 1,
					"midpoints" : [ 794.5, 363.0, 991.5, 363.0 ]
				}

			}
, 			{
				"patchline" : 				{
					"source" : [ "obj-37", 0 ],
					"destination" : [ "obj-31", 0 ],
					"hidden" : 1,
					"midpoints" : [ 838.5, 466.0, 976.5, 466.0 ]
				}

			}
, 			{
				"patchline" : 				{
					"source" : [ "obj-40", 0 ],
					"destination" : [ "obj-39", 0 ],
					"hidden" : 1,
					"midpoints" : [  ]
				}

			}
, 			{
				"patchline" : 				{
					"source" : [ "obj-35", 0 ],
					"destination" : [ "obj-36", 0 ],
					"hidden" : 0,
					"midpoints" : [  ]
				}

			}
, 			{
				"patchline" : 				{
					"source" : [ "obj-34", 0 ],
					"destination" : [ "obj-35", 0 ],
					"hidden" : 0,
					"midpoints" : [  ]
				}

			}
, 			{
				"patchline" : 				{
					"source" : [ "obj-44", 0 ],
					"destination" : [ "obj-37", 1 ],
					"hidden" : 1,
					"midpoints" : [ 751.5, 404.0, 915.0, 404.0 ]
				}

			}
, 			{
				"patchline" : 				{
					"source" : [ "obj-36", 0 ],
					"destination" : [ "obj-37", 0 ],
					"hidden" : 1,
					"midpoints" : [ 928.5, 432.0, 838.5, 432.0 ]
				}

			}
, 			{
				"patchline" : 				{
					"source" : [ "obj-41", 0 ],
					"destination" : [ "obj-37", 0 ],
					"hidden" : 1,
					"midpoints" : [ 676.0, 399.0, 838.5, 399.0 ]
				}

			}
, 			{
				"patchline" : 				{
					"source" : [ "obj-3", 0 ],
					"destination" : [ "obj-40", 0 ],
					"hidden" : 1,
					"midpoints" : [  ]
				}

			}
, 			{
				"patchline" : 				{
					"source" : [ "obj-40", 0 ],
					"destination" : [ "obj-42", 1 ],
					"hidden" : 1,
					"midpoints" : [  ]
				}

			}
, 			{
				"patchline" : 				{
					"source" : [ "obj-38", 0 ],
					"destination" : [ "obj-33", 2 ],
					"hidden" : 1,
					"midpoints" : [  ]
				}

			}
, 			{
				"patchline" : 				{
					"source" : [ "obj-33", 0 ],
					"destination" : [ "obj-32", 0 ],
					"hidden" : 1,
					"midpoints" : [  ]
				}

			}
, 			{
				"patchline" : 				{
					"source" : [ "obj-43", 0 ],
					"destination" : [ "obj-44", 0 ],
					"hidden" : 1,
					"midpoints" : [  ]
				}

			}
, 			{
				"patchline" : 				{
					"source" : [ "obj-47", 0 ],
					"destination" : [ "obj-43", 0 ],
					"hidden" : 1,
					"midpoints" : [  ]
				}

			}
, 			{
				"patchline" : 				{
					"source" : [ "obj-48", 1 ],
					"destination" : [ "obj-47", 0 ],
					"hidden" : 0,
					"midpoints" : [ 416.5, 114.0, 750.5, 114.0 ]
				}

			}
, 			{
				"patchline" : 				{
					"source" : [ "obj-48", 1 ],
					"destination" : [ "obj-49", 0 ],
					"hidden" : 0,
					"midpoints" : [ 416.5, 114.0, 725.5, 114.0 ]
				}

			}
, 			{
				"patchline" : 				{
					"source" : [ "obj-46", 0 ],
					"destination" : [ "obj-33", 1 ],
					"hidden" : 1,
					"midpoints" : [ 618.5, 520.0, 694.0, 520.0 ]
				}

			}
, 			{
				"patchline" : 				{
					"source" : [ "obj-44", 0 ],
					"destination" : [ "obj-42", 0 ],
					"hidden" : 1,
					"midpoints" : [  ]
				}

			}
, 			{
				"patchline" : 				{
					"source" : [ "obj-42", 0 ],
					"destination" : [ "obj-41", 0 ],
					"hidden" : 1,
					"midpoints" : [  ]
				}

			}
, 			{
				"patchline" : 				{
					"source" : [ "obj-46", 0 ],
					"destination" : [ "obj-45", 0 ],
					"hidden" : 0,
					"midpoints" : [  ]
				}

			}
, 			{
				"patchline" : 				{
					"source" : [ "obj-48", 1 ],
					"destination" : [ "obj-46", 0 ],
					"hidden" : 0,
					"midpoints" : [ 416.5, 127.0, 618.5, 127.0 ]
				}

			}
, 			{
				"patchline" : 				{
					"source" : [ "obj-41", 0 ],
					"destination" : [ "obj-33", 0 ],
					"hidden" : 1,
					"midpoints" : [  ]
				}

			}
, 			{
				"patchline" : 				{
					"source" : [ "obj-36", 0 ],
					"destination" : [ "obj-33", 0 ],
					"hidden" : 1,
					"midpoints" : [  ]
				}

			}
, 			{
				"patchline" : 				{
					"source" : [ "obj-41", 0 ],
					"destination" : [ "obj-10", 1 ],
					"hidden" : 1,
					"midpoints" : [  ]
				}

			}
, 			{
				"patchline" : 				{
					"source" : [ "obj-6", 0 ],
					"destination" : [ "obj-8", 5 ],
					"hidden" : 0,
					"midpoints" : [  ]
				}

			}
, 			{
				"patchline" : 				{
					"source" : [ "obj-10", 1 ],
					"destination" : [ "obj-6", 0 ],
					"hidden" : 0,
					"midpoints" : [  ]
				}

			}
, 			{
				"patchline" : 				{
					"source" : [ "obj-9", 0 ],
					"destination" : [ "obj-8", 4 ],
					"hidden" : 1,
					"midpoints" : [  ]
				}

			}
, 			{
				"patchline" : 				{
					"source" : [ "obj-37", 0 ],
					"destination" : [ "obj-8", 3 ],
					"hidden" : 1,
					"midpoints" : [  ]
				}

			}
, 			{
				"patchline" : 				{
					"source" : [ "obj-4", 0 ],
					"destination" : [ "obj-3", 0 ],
					"hidden" : 1,
					"midpoints" : [  ]
				}

			}
, 			{
				"patchline" : 				{
					"source" : [ "obj-33", 0 ],
					"destination" : [ "obj-8", 2 ],
					"hidden" : 1,
					"midpoints" : [  ]
				}

			}
, 			{
				"patchline" : 				{
					"source" : [ "obj-17", 0 ],
					"destination" : [ "obj-8", 1 ],
					"hidden" : 1,
					"midpoints" : [  ]
				}

			}
, 			{
				"patchline" : 				{
					"source" : [ "obj-8", 0 ],
					"destination" : [ "obj-5", 0 ],
					"hidden" : 0,
					"midpoints" : [  ]
				}

			}
, 			{
				"patchline" : 				{
					"source" : [ "obj-14", 0 ],
					"destination" : [ "obj-8", 0 ],
					"hidden" : 1,
					"midpoints" : [  ]
				}

			}
, 			{
				"patchline" : 				{
					"source" : [ "obj-10", 0 ],
					"destination" : [ "obj-9", 0 ],
					"hidden" : 0,
					"midpoints" : [  ]
				}

			}
, 			{
				"patchline" : 				{
					"source" : [ "obj-21", 0 ],
					"destination" : [ "obj-10", 0 ],
					"hidden" : 1,
					"midpoints" : [  ]
				}

			}
, 			{
				"patchline" : 				{
					"source" : [ "obj-2", 0 ],
					"destination" : [ "obj-48", 0 ],
					"hidden" : 0,
					"midpoints" : [  ]
				}

			}
, 			{
				"patchline" : 				{
					"source" : [ "obj-18", 0 ],
					"destination" : [ "obj-17", 2 ],
					"hidden" : 1,
					"midpoints" : [ 186.5, 358.0, 383.5, 358.0 ]
				}

			}
, 			{
				"patchline" : 				{
					"source" : [ "obj-17", 0 ],
					"destination" : [ "obj-12", 0 ],
					"hidden" : 1,
					"midpoints" : [ 230.5, 461.0, 368.5, 461.0 ]
				}

			}
, 			{
				"patchline" : 				{
					"source" : [ "obj-20", 0 ],
					"destination" : [ "obj-19", 0 ],
					"hidden" : 1,
					"midpoints" : [  ]
				}

			}
, 			{
				"patchline" : 				{
					"source" : [ "obj-15", 0 ],
					"destination" : [ "obj-16", 0 ],
					"hidden" : 0,
					"midpoints" : [  ]
				}

			}
, 			{
				"patchline" : 				{
					"source" : [ "obj-51", 0 ],
					"destination" : [ "obj-15", 0 ],
					"hidden" : 0,
					"midpoints" : [  ]
				}

			}
, 			{
				"patchline" : 				{
					"source" : [ "obj-24", 0 ],
					"destination" : [ "obj-17", 1 ],
					"hidden" : 1,
					"midpoints" : [ 143.5, 399.0, 307.0, 399.0 ]
				}

			}
, 			{
				"patchline" : 				{
					"source" : [ "obj-16", 0 ],
					"destination" : [ "obj-17", 0 ],
					"hidden" : 1,
					"midpoints" : [ 320.5, 427.0, 230.5, 427.0 ]
				}

			}
, 			{
				"patchline" : 				{
					"source" : [ "obj-21", 0 ],
					"destination" : [ "obj-17", 0 ],
					"hidden" : 1,
					"midpoints" : [ 68.0, 394.0, 230.5, 394.0 ]
				}

			}
, 			{
				"patchline" : 				{
					"source" : [ "obj-3", 0 ],
					"destination" : [ "obj-20", 0 ],
					"hidden" : 1,
					"midpoints" : [  ]
				}

			}
, 			{
				"patchline" : 				{
					"source" : [ "obj-20", 0 ],
					"destination" : [ "obj-22", 1 ],
					"hidden" : 1,
					"midpoints" : [  ]
				}

			}
, 			{
				"patchline" : 				{
					"source" : [ "obj-18", 0 ],
					"destination" : [ "obj-14", 2 ],
					"hidden" : 1,
					"midpoints" : [  ]
				}

			}
, 			{
				"patchline" : 				{
					"source" : [ "obj-14", 0 ],
					"destination" : [ "obj-13", 0 ],
					"hidden" : 0,
					"midpoints" : [  ]
				}

			}
, 			{
				"patchline" : 				{
					"source" : [ "obj-23", 0 ],
					"destination" : [ "obj-24", 0 ],
					"hidden" : 1,
					"midpoints" : [  ]
				}

			}
, 			{
				"patchline" : 				{
					"source" : [ "obj-27", 0 ],
					"destination" : [ "obj-23", 0 ],
					"hidden" : 1,
					"midpoints" : [  ]
				}

			}
, 			{
				"patchline" : 				{
					"source" : [ "obj-48", 0 ],
					"destination" : [ "obj-27", 0 ],
					"hidden" : 0,
					"midpoints" : [ 404.5, 117.0, 142.5, 117.0 ]
				}

			}
, 			{
				"patchline" : 				{
					"source" : [ "obj-48", 0 ],
					"destination" : [ "obj-28", 0 ],
					"hidden" : 0,
					"midpoints" : [ 404.5, 117.0, 117.5, 117.0 ]
				}

			}
, 			{
				"patchline" : 				{
					"source" : [ "obj-26", 0 ],
					"destination" : [ "obj-14", 1 ],
					"hidden" : 1,
					"midpoints" : [ 10.5, 515.0, 86.0, 515.0 ]
				}

			}
, 			{
				"patchline" : 				{
					"source" : [ "obj-24", 0 ],
					"destination" : [ "obj-22", 0 ],
					"hidden" : 1,
					"midpoints" : [  ]
				}

			}
, 			{
				"patchline" : 				{
					"source" : [ "obj-22", 0 ],
					"destination" : [ "obj-21", 0 ],
					"hidden" : 1,
					"midpoints" : [  ]
				}

			}
, 			{
				"patchline" : 				{
					"source" : [ "obj-26", 0 ],
					"destination" : [ "obj-25", 0 ],
					"hidden" : 0,
					"midpoints" : [  ]
				}

			}
, 			{
				"patchline" : 				{
					"source" : [ "obj-48", 0 ],
					"destination" : [ "obj-26", 0 ],
					"hidden" : 0,
					"midpoints" : [ 404.5, 379.0, 10.5, 379.0 ]
				}

			}
, 			{
				"patchline" : 				{
					"source" : [ "obj-16", 0 ],
					"destination" : [ "obj-14", 0 ],
					"hidden" : 1,
					"midpoints" : [  ]
				}

			}
, 			{
				"patchline" : 				{
					"source" : [ "obj-21", 0 ],
					"destination" : [ "obj-14", 0 ],
					"hidden" : 1,
					"midpoints" : [  ]
				}

			}
 ]
	}

}
